<svg width="96" height="96" viewBox="0 0 96 96" fill="none" xmlns="http://www.w3.org/2000/svg">
<path d="M90.5868 46.0087C86.6099 28.0293 80.6249 18.4331 71.7468 15.8118C69.8806 15.2644 67.9447 14.991 65.9999 15C63.4293 15 61.1905 15.6262 58.8224 16.29C55.9687 17.0906 52.7268 18 47.9999 18C43.273 18 40.0293 17.0925 37.1699 16.2918C34.7999 15.6262 32.563 15 29.9999 15C27.9888 14.993 25.9865 15.2656 24.0505 15.81C15.2193 18.42 9.23802 28.0125 5.20302 45.9975C0.864272 65.3512 2.9999 77.5706 11.1918 80.4056C12.3147 80.8014 13.4962 81.0055 14.6868 81.0093C20.2986 81.0093 24.7986 76.335 27.8736 72.5081C31.348 68.1768 35.4149 65.9794 47.9999 65.9794C59.2405 65.9794 63.8924 67.5037 67.9105 72.5081C70.4361 75.6543 72.823 77.8556 75.2043 79.2412C78.3711 81.0825 81.5361 81.4912 84.6093 80.4356C89.4505 78.7837 92.2255 74.4168 92.8593 67.4531C93.3411 62.1131 92.5986 55.0987 90.5868 46.0087ZM38.9999 45H32.9999V51C32.9999 51.7956 32.6838 52.5587 32.1212 53.1213C31.5586 53.6839 30.7955 54 29.9999 54C29.2042 54 28.4412 53.6839 27.8786 53.1213C27.316 52.5587 26.9999 51.7956 26.9999 51V45H20.9999C20.2042 45 19.4412 44.6839 18.8786 44.1213C18.316 43.5587 17.9999 42.7956 17.9999 42C17.9999 41.2043 18.316 40.4413 18.8786 39.8787C19.4412 39.316 20.2042 39 20.9999 39H26.9999V33C26.9999 32.2043 27.316 31.4413 27.8786 30.8787C28.4412 30.316 29.2042 30 29.9999 30C30.7955 30 31.5586 30.316 32.1212 30.8787C32.6838 31.4413 32.9999 32.2043 32.9999 33V39H38.9999C39.7955 39 40.5586 39.316 41.1212 39.8787C41.6838 40.4413 41.9999 41.2043 41.9999 42C41.9999 42.7956 41.6838 43.5587 41.1212 44.1213C40.5586 44.6839 39.7955 45 38.9999 45ZM54.7499 45.75C54.0082 45.75 53.2832 45.53 52.6665 45.118C52.0498 44.7059 51.5692 44.1203 51.2853 43.435C51.0015 42.7498 50.9273 41.9958 51.072 41.2684C51.2167 40.541 51.5738 39.8728 52.0982 39.3483C52.6227 38.8239 53.2909 38.4667 54.0183 38.322C54.7457 38.1773 55.4997 38.2516 56.185 38.5354C56.8702 38.8193 57.4559 39.2999 57.8679 39.9166C58.28 40.5333 58.4999 41.2583 58.4999 42C58.4999 42.9945 58.1048 43.9484 57.4016 44.6516C56.6983 45.3549 55.7445 45.75 54.7499 45.75ZM62.9999 54C62.2578 54 61.5324 53.7798 60.9155 53.3673C60.2987 52.9549 59.818 52.3686 59.5345 51.6829C59.2509 50.9971 59.1772 50.2426 59.3227 49.5149C59.4681 48.7872 59.8262 48.1191 60.3516 47.595C60.877 47.0709 61.546 46.7145 62.2741 46.5709C63.0021 46.4273 63.7564 46.5029 64.4415 46.7881C65.1265 47.0734 65.7115 47.5555 66.1225 48.1734C66.5334 48.7913 66.7518 49.5173 66.7499 50.2593C66.7474 51.2523 66.3512 52.2037 65.6482 52.9049C64.9452 53.6062 63.9928 54 62.9999 54ZM62.9999 37.5C62.2582 37.5 61.5332 37.28 60.9165 36.868C60.2998 36.4559 59.8192 35.8703 59.5353 35.185C59.2515 34.4998 59.1773 33.7458 59.322 33.0184C59.4667 32.291 59.8238 31.6228 60.3482 31.0983C60.8727 30.5739 61.5409 30.2167 62.2683 30.072C62.9957 29.9273 63.7497 30.0016 64.435 30.2854C65.1202 30.5693 65.7059 31.0499 66.1179 31.6666C66.53 32.2833 66.7499 33.0083 66.7499 33.75C66.7499 34.7445 66.3548 35.6984 65.6516 36.4016C64.9483 37.1049 63.9945 37.5 62.9999 37.5ZM71.2499 45.75C70.5082 45.75 69.7832 45.53 69.1665 45.118C68.5498 44.7059 68.0692 44.1203 67.7853 43.435C67.5015 42.7498 67.4273 41.9958 67.572 41.2684C67.7167 40.541 68.0738 39.8728 68.5982 39.3483C69.1227 38.8239 69.7909 38.4667 70.5183 38.322C71.2457 38.1773 71.9997 38.2516 72.685 38.5354C73.3702 38.8193 73.9559 39.2999 74.3679 39.9166C74.78 40.5333 74.9999 41.2583 74.9999 42C74.9999 42.9945 74.6048 43.9484 73.9016 44.6516C73.1983 45.3549 72.2445 45.75 71.2499 45.75Z" fill="url(#paint0_linear_38_661)"/>
<defs>
<linearGradient id="paint0_linear_38_661" x1="48.0038" y1="14.9998" x2="48.0038" y2="81.0093" gradientUnits="userSpaceOnUse">
<stop stop-color="#15CC9E"/>
<stop offset="1" stop-color="#0B664F"/>
</linearGradient>
</defs>
</svg>
