<svg width="96" height="96" viewBox="0 0 96 96" fill="none" xmlns="http://www.w3.org/2000/svg">
<g clip-path="url(#clip0_38_663)">
<path fill-rule="evenodd" clip-rule="evenodd" d="M51.5985 59.9991C49.245 59.2251 50.3295 55.7272 50.8125 54.4612C50.928 54.2062 51 54.0262 51 54.0007C51 47.3723 45.627 41.9994 39 41.9994C33.936 41.9994 29.613 45.1403 27.852 49.5788C25.2045 54.2452 21 54.0007 21 54.0007C9.402 54.0007 0 63.4026 0 74.9989C0 83.9717 12.027 96 21 96C32.5965 96 42 86.5967 42 74.9989C42 74.8969 41.9865 74.7979 41.985 74.6959L42 74.7004C42 64.844 50.1945 66.122 51.5985 65.999C53.256 65.999 54.5985 64.6565 54.5985 63.0006C54.5985 61.3431 53.2575 59.9991 51.5985 59.9991Z" fill="#ED7161"/>
<path fill-rule="evenodd" clip-rule="evenodd" d="M41.982 74.6944L42 74.7004C42 64.844 50.1945 66.122 51.5985 65.999C53.256 65.999 54.5985 64.6565 54.5985 63.0006C54.5985 61.3431 53.256 59.9991 51.5985 59.9991C49.245 59.2251 50.3295 55.7302 50.811 54.4627C50.9295 54.2017 51 54.0277 51 54.0007C51 52.2112 50.5965 50.5193 49.896 48.9938C44.5005 53.8492 21 74.9989 21 74.9989C21 74.9989 32.0625 86.7737 39.1815 85.4777C40.9635 82.3908 42 78.8193 42 74.9989C42 74.8969 41.9835 74.7979 41.982 74.6944Z" fill="#9D5F57"/>
<path d="M38.1945 61.457L34.458 57.7191C33.426 56.6871 31.7535 56.6871 30.7215 57.7191C29.6895 58.751 29.6895 60.425 30.7215 61.457L34.458 65.1919C35.49 66.2239 37.164 66.2239 38.1945 65.1919C39.2265 64.16 39.2265 62.4875 38.1945 61.457Z" fill="white"/>
<path d="M26.1945 73.4568L22.458 69.7204C21.426 68.6884 19.7535 68.6884 18.723 69.7204C17.691 70.7524 17.691 72.4249 18.723 73.4568L22.458 77.1918C23.49 78.2238 25.164 78.2238 26.1945 77.1918C27.2265 76.1598 27.2265 74.4873 26.1945 73.4568Z" fill="white"/>
<path fill-rule="evenodd" clip-rule="evenodd" d="M22.5 83.9957C21.6705 83.9957 21 84.6677 21 85.4972C21 86.3252 21.6705 86.9957 22.5 86.9957C23.328 86.9957 24 86.3252 24 85.4972C24 84.6677 23.328 83.9957 22.5 83.9957ZM28.5 83.9957C27.6705 83.9957 27 84.6677 27 85.4972C27 86.3252 27.6705 86.9957 28.5 86.9957C29.328 86.9957 30 86.3252 30 85.4972C30 84.6677 29.328 83.9957 28.5 83.9957Z" fill="white"/>
<path fill-rule="evenodd" clip-rule="evenodd" d="M93 3.00145V2.99845H92.997L90 0H87L78 8.99986L79.5 10.4998L36 53.9977L42 59.9976L85.4985 16.4997L87 18.0012L96 8.99986V5.99991L93 3.00145Z" fill="#E8AD72"/>
<path fill-rule="evenodd" clip-rule="evenodd" d="M93 3.00145L90 0H87L78 8.99986V11.9998L81 14.9998L84 18.0012H87L96 8.99986V5.99991L93 3.00145Z" fill="#666666"/>
</g>
<defs>
<clipPath id="clip0_38_663">
<rect width="96" height="96" fill="white"/>
</clipPath>
</defs>
</svg>
