<svg width="96" height="76" viewBox="0 0 96 76" fill="none" xmlns="http://www.w3.org/2000/svg">
<g clip-path="url(#clip0_53_349)">
<path d="M94.4386 31.2263C92.0851 29.6373 85.9006 28.9587 81.4043 30.1734C81.1619 25.6814 78.8528 21.896 74.6282 18.5932L73.0643 17.5402L72.0221 19.119C69.9733 22.2385 69.1101 26.3944 69.4161 30.1721C69.6573 32.4996 70.4646 35.1161 72.0221 37.0145C66.1702 40.4192 60.7765 39.6463 36.8888 39.6463H0.00754752C-0.100352 45.0563 0.766652 55.4638 7.36502 63.936C8.09366 64.8718 8.89338 65.7771 9.76038 66.6493C15.1249 72.0377 23.23 75.9885 35.3503 76C53.8405 76.0166 69.6826 65.9923 79.3187 41.7535C82.4897 41.8057 90.8601 42.3239 94.9565 34.384C95.0568 34.2503 95.9987 32.278 95.9987 32.278L94.4373 31.2251L94.4386 31.2263ZM24.0767 26.2785H13.7057V36.6809H24.0767V26.2785ZM37.4753 26.2785H27.1043V36.6809H37.4753V26.2785ZM50.8739 26.2785H40.5028V36.6809H50.8739V26.2785ZM64.2724 26.2785H53.9014V36.6809H64.2724V26.2785ZM10.6782 26.2785H0.307127V36.6809H10.6782V26.2785ZM24.0767 13.1399H13.7057V23.5423H24.0767V13.1399ZM37.4753 13.1399H27.1043V23.5423H37.4753V13.1399ZM50.8739 13.1399H40.5028V23.5423H50.8739V13.1399ZM50.8739 0H40.5028V10.4024H50.8739V0Z" fill="#1D63ED"/>
</g>
<defs>
<clipPath id="clip0_53_349">
<rect width="96" height="76" fill="white"/>
</clipPath>
</defs>
</svg>
