<svg width="96" height="96" viewBox="0 0 96 96" fill="none" xmlns="http://www.w3.org/2000/svg">
<g clip-path="url(#clip0_38_613)">
<path fill-rule="evenodd" clip-rule="evenodd" d="M96 48C96 38.5065 93.1849 29.2262 87.9106 21.3326C82.6363 13.4391 75.1397 7.28681 66.3688 3.6538C57.598 0.0207979 47.9468 -0.929763 38.6357 0.922328C29.3246 2.77442 20.7718 7.34598 14.0589 14.0589C7.34598 20.7718 2.77442 29.3246 0.922328 38.6357C-0.929763 47.9468 0.0207979 57.598 3.6538 66.3688C7.28681 75.1397 13.4391 82.6363 21.3326 87.9106C29.2262 93.1849 38.5065 96 48 96C60.7304 96 72.9394 90.9429 81.9412 81.9412C90.9429 72.9394 96 60.7304 96 48Z" fill="#2B2E3A"/>
<path d="M37.6875 26.8828C27.9375 25.1093 20.2266 26.9687 17.1563 32.289C14.8594 36.2656 15.5156 41.5312 18.7188 47.1328C18.7806 47.2527 18.8662 47.3589 18.9702 47.4449C19.0742 47.5309 19.1945 47.595 19.324 47.6333C19.4534 47.6715 19.5892 47.6832 19.7233 47.6676C19.8574 47.6519 19.9869 47.6093 20.104 47.5423C20.2212 47.4753 20.3235 47.3852 20.405 47.2776C20.4864 47.17 20.5452 47.0469 20.5778 46.916C20.6104 46.785 20.6162 46.6488 20.5948 46.5155C20.5733 46.3823 20.5252 46.2547 20.4531 46.1406C17.5469 41.0703 16.9844 36.5234 18.8906 33.2656C21.4453 28.8437 28.3203 27.1875 37.3359 28.8281L37.5 28.9062C37.7517 28.9114 37.9961 28.8213 38.1844 28.6542C38.3727 28.487 38.4909 28.255 38.5156 28.0044C38.5403 27.7538 38.4695 27.5032 38.3174 27.3025C38.1654 27.1018 37.9432 26.9659 37.6953 26.9218L37.6875 26.8828ZM23.4375 55.9687C27.7862 60.6277 32.8207 64.5953 38.3672 67.7343C52.5078 75.9062 67.5703 78.125 75 73.0234C75.14 72.9337 75.255 72.81 75.3342 72.6638C75.4134 72.5176 75.4543 72.3537 75.4531 72.1875C75.4451 72.0096 75.3898 71.837 75.2928 71.6876C75.1958 71.5383 75.0606 71.4175 74.9014 71.3379C74.7421 71.2583 74.5644 71.2226 74.3867 71.2346C74.209 71.2466 74.0378 71.3059 73.8906 71.4062C67.1875 75.9062 52.9141 73.8281 39.3672 66.0078C34.0044 62.9692 29.1382 59.1279 24.9375 54.6172C24.8376 54.5107 24.7165 54.4264 24.5818 54.3698C24.4472 54.3133 24.3022 54.2858 24.1563 54.289C23.891 54.289 23.6367 54.3944 23.4491 54.5819C23.2616 54.7695 23.1563 55.0238 23.1563 55.289C23.1576 55.5392 23.2491 55.7806 23.4141 55.9687H23.4375Z" fill="#9FEAF9"/>
<path d="M72.9844 52.7812C79.3672 45.2421 81.5782 37.6484 78.5313 32.3437C76.2735 28.4375 71.5001 26.3671 65.1641 26.289C64.8989 26.289 64.6445 26.3944 64.457 26.5819C64.2695 26.7694 64.1641 27.0238 64.1641 27.289C64.1641 27.5542 64.2695 27.8086 64.457 27.9961C64.6445 28.1837 64.8989 28.289 65.1641 28.289C70.8672 28.3593 74.9766 30.1406 76.8204 33.3437C79.3672 37.75 77.3829 44.5156 71.4766 51.4921C71.3057 51.6993 71.224 51.966 71.2497 52.2333C71.2753 52.5007 71.4061 52.747 71.6133 52.9179C71.8205 53.0889 72.0872 53.1705 72.3545 53.1448C72.6219 53.1192 72.8682 52.9884 73.0391 52.7812H72.9844ZM55.0157 25.9218C48.75 27.3373 42.7395 29.7088 37.1954 32.9531C22.6563 41.4062 13.0938 53.8515 14.4219 62.8671C14.4603 63.1303 14.6016 63.3674 14.8147 63.5264C15.0279 63.6854 15.2955 63.7531 15.5586 63.7148C15.8218 63.6765 16.0589 63.5352 16.2179 63.322C16.3769 63.1088 16.4446 62.8412 16.4063 62.5781C15.2188 54.5703 24.2188 42.789 38.2266 34.7187C43.5874 31.5651 49.4035 29.2592 55.4688 27.8828C55.7159 27.8387 55.9373 27.7033 56.0892 27.5035C56.2411 27.3037 56.3123 27.0541 56.2887 26.8042C56.2651 26.5544 56.1484 26.3226 55.9618 26.1547C55.7751 25.9869 55.5322 25.8954 55.2813 25.8984C55.206 25.8903 55.13 25.8903 55.0547 25.8984L55.0157 25.9218Z" fill="#9FEAF9"/>
<path d="M32.9141 70.4063C36.25 79.7266 41.7109 85.4688 47.8594 85.4688C52.3359 85.4688 56.4531 82.4141 59.7109 77.0391C59.8106 76.8829 59.8623 76.7009 59.8594 76.5156C59.8586 76.2969 59.7862 76.0845 59.6531 75.9109C59.5201 75.7373 59.3338 75.6121 59.1228 75.5545C58.9119 75.4969 58.6878 75.51 58.485 75.5919C58.2822 75.6738 58.1118 75.8199 58 76.0078C55.0937 80.8438 51.5234 83.4688 47.8438 83.4688C42.7422 83.4688 37.8672 78.3516 34.7812 69.7344C34.7043 69.5112 34.5508 69.3225 34.3481 69.2016C34.1453 69.0807 33.9064 69.0354 33.6735 69.0738C33.4405 69.1122 33.2287 69.2317 33.0754 69.4112C32.9221 69.5907 32.8373 69.8187 32.8359 70.0547C32.8332 70.1749 32.8545 70.2944 32.8984 70.4063H32.9141ZM65.2891 67.9141C67.1068 61.9037 68.0101 55.6541 67.9688 49.375C67.9688 32.8125 62.1484 18.5313 53.9062 14.8438C53.7847 14.7939 53.6548 14.7674 53.5234 14.7656C53.2952 14.7641 53.0734 14.8406 52.8946 14.9825C52.7159 15.1244 52.5911 15.3231 52.5409 15.5457C52.4907 15.7684 52.5182 16.0014 52.6188 16.2063C52.7193 16.4111 52.8869 16.5754 53.0938 16.6719C60.4453 19.961 65.9531 33.5157 65.9531 49.375C65.9992 55.4594 65.1328 61.5163 63.3828 67.3438C63.3515 67.445 63.3357 67.5503 63.3359 67.6563C63.3359 67.9215 63.4413 68.1758 63.6288 68.3634C63.8164 68.5509 64.0707 68.6563 64.3359 68.6563C64.552 68.6553 64.762 68.5849 64.935 68.4555C65.1081 68.3261 65.2349 68.1445 65.2969 67.9375L65.2891 67.9141ZM82.2188 66.3516C82.228 65.4025 81.9551 64.472 81.4345 63.6783C80.914 62.8846 80.1693 62.2635 79.2951 61.8938C78.4209 61.5241 77.4565 61.4226 76.5245 61.602C75.5924 61.7815 74.7347 62.2339 74.0602 62.9017C73.3858 63.5696 72.925 64.4228 72.7364 65.353C72.5477 66.2833 72.6398 67.2486 73.0009 68.1264C73.3619 69.0042 73.9757 69.755 74.7642 70.2833C75.5528 70.8116 76.4805 71.0937 77.4297 71.0938C78.0582 71.0948 78.6808 70.9719 79.2618 70.7321C79.8428 70.4922 80.3708 70.1402 80.8156 69.6961C81.2604 69.2521 81.6133 68.7246 81.854 68.144C82.0948 67.5634 82.2188 66.9411 82.2188 66.3125V66.3516ZM80.2188 66.3516C80.2188 66.9032 80.0552 67.4424 79.7487 67.9011C79.4422 68.3598 79.0067 68.7172 78.497 68.9283C77.9874 69.1394 77.4266 69.1947 76.8856 69.0871C76.3445 68.9794 75.8476 68.7138 75.4575 68.3237C75.0675 67.9337 74.8018 67.4367 74.6942 66.8957C74.5866 66.3547 74.6418 65.7939 74.8529 65.2843C75.064 64.7746 75.4215 64.339 75.8802 64.0326C76.3388 63.7261 76.8781 63.5625 77.4297 63.5625C77.7962 63.5615 78.1594 63.6329 78.4982 63.7727C78.8371 63.9125 79.145 64.1179 79.4042 64.3771C79.6633 64.6363 79.8687 64.9442 80.0085 65.283C80.1483 65.6219 80.2198 65.985 80.2188 66.3516ZM18.1875 72.4063C19.1347 72.4063 20.0606 72.1254 20.8482 71.5992C21.6357 71.0729 22.2495 70.325 22.612 69.4499C22.9745 68.5748 23.0693 67.6119 22.8845 66.6829C22.6998 65.7539 22.2436 64.9006 21.5739 64.2308C20.9041 63.5611 20.0508 63.105 19.1218 62.9202C18.1928 62.7354 17.2299 62.8302 16.3548 63.1927C15.4797 63.5552 14.7318 64.169 14.2055 64.9566C13.6793 65.7441 13.3984 66.67 13.3984 67.6172C13.3984 68.8874 13.903 70.1055 14.8011 71.0036C15.6992 71.9017 16.9174 72.4063 18.1875 72.4063ZM18.1875 70.4063C17.6359 70.4063 17.0966 70.2427 16.638 69.9362C16.1793 69.6298 15.8218 69.1942 15.6107 68.6845C15.3996 68.1749 15.3444 67.6141 15.452 67.0731C15.5596 66.5321 15.8253 66.0351 16.2153 65.645C16.6054 65.255 17.1024 64.9894 17.6434 64.8817C18.1844 64.7741 18.7452 64.8294 19.2548 65.0405C19.7645 65.2515 20.2001 65.609 20.5065 66.0677C20.813 66.5263 20.9766 67.0656 20.9766 67.6172C20.9766 68.3569 20.6827 69.0663 20.1597 69.5894C19.6366 70.1124 18.9272 70.4063 18.1875 70.4063Z" fill="#9FEAF9"/>
<path d="M47.8594 20.4141C48.8066 20.4141 49.7325 20.1332 50.52 19.607C51.3076 19.0807 51.9214 18.3328 52.2839 17.4577C52.6464 16.5826 52.7412 15.6197 52.5564 14.6907C52.3716 13.7617 51.9155 12.9084 51.2458 12.2386C50.576 11.5689 49.7227 11.1127 48.7937 10.928C47.8647 10.7432 46.9018 10.838 46.0267 11.2005C45.1516 11.563 44.4036 12.1768 43.8774 12.9643C43.3512 13.7519 43.0703 14.6778 43.0703 15.625C43.0703 16.2535 43.1942 16.8759 43.435 17.4565C43.6758 18.0371 44.0287 18.5645 44.4735 19.0086C44.9183 19.4527 45.4463 19.8047 46.0273 20.0445C46.6083 20.2844 47.2308 20.4073 47.8594 20.4063V20.4141ZM47.8594 18.4141C47.3074 18.4156 46.7674 18.2533 46.3077 17.9478C45.848 17.6423 45.4893 17.2073 45.2771 16.6978C45.0648 16.1883 45.0084 15.6272 45.1151 15.0857C45.2219 14.5441 45.4869 14.0465 45.8766 13.6556C46.2664 13.2648 46.7633 12.9984 47.3046 12.8901C47.8458 12.7819 48.407 12.8366 48.9171 13.0475C49.4272 13.2584 49.8632 13.6158 50.17 14.0747C50.4768 14.5335 50.6406 15.073 50.6406 15.625C50.6406 16.3626 50.3476 17.0701 49.826 17.5916C49.3044 18.1132 48.597 18.4063 47.8594 18.4063V18.4141ZM48.5859 47.8594C48.1417 47.9559 47.6828 47.964 47.2354 47.8831C46.7881 47.8022 46.361 47.634 45.9787 47.3881C45.5963 47.1421 45.2662 46.8233 45.0071 46.4497C44.7481 46.0762 44.5651 45.6552 44.4687 45.2109C44.4192 44.9692 44.393 44.7233 44.3906 44.4766C44.3908 43.8236 44.5756 43.1839 44.9239 42.6315C45.2721 42.0791 45.7695 41.6365 46.3586 41.3549C46.9478 41.0732 47.6045 40.9639 48.2531 41.0397C48.9017 41.1155 49.5156 41.3732 50.024 41.7831C50.5323 42.1929 50.9143 42.7383 51.1259 43.3561C51.3374 43.9738 51.3699 44.6389 51.2195 45.2743C51.0691 45.9098 50.742 46.4897 50.276 46.9471C49.81 47.4046 49.2241 47.7208 48.5859 47.8594Z" fill="#9FEAF9"/>
</g>
<defs>
<clipPath id="clip0_38_613">
<rect width="96" height="96" fill="white"/>
</clipPath>
</defs>
</svg>
