<svg width="96" height="96" viewBox="0 0 96 96" fill="none" xmlns="http://www.w3.org/2000/svg">
<path d="M88.4159 44.259L51.7409 7.58399C51.2392 7.08056 50.6431 6.68112 49.9867 6.40857C49.3303 6.13602 48.6266 5.99573 47.9159 5.99573C47.2052 5.99573 46.5015 6.13602 45.8451 6.40857C45.1887 6.68112 44.5926 7.08056 44.0909 7.58399L36.4739 15.201L46.1339 24.861C47.273 24.4733 48.4981 24.4135 49.6696 24.6882C50.8411 24.9629 51.9119 25.5612 52.7599 26.4148C53.6079 27.2685 54.1991 28.3432 54.4661 29.5165C54.7331 30.6898 54.6651 31.9145 54.2699 33.051L63.5699 42.351C64.96 41.8734 66.4718 41.8866 67.8534 42.3884C69.235 42.8902 70.4029 43.8502 71.1625 45.1086C71.9222 46.367 72.2277 47.8476 72.0282 49.3039C71.8287 50.7602 71.1361 52.1041 70.066 53.1117C68.9959 54.1194 67.6128 54.7299 66.1472 54.8416C64.6816 54.9533 63.2219 54.5594 62.0115 53.7255C60.801 52.8917 59.9129 51.6682 59.495 50.259C59.0771 48.8498 59.1547 47.3399 59.7149 45.981L51.0299 37.296V60.147C52.3455 60.7988 53.3981 61.8818 54.0123 63.2154C54.6265 64.549 54.7653 66.0528 54.4055 67.4763C54.0457 68.8998 53.2091 70.157 52.0349 71.0386C50.8608 71.9202 49.4201 72.3729 47.9527 72.3213C46.4854 72.2698 45.08 71.717 43.9707 70.7552C42.8613 69.7933 42.115 68.4804 41.856 67.0352C41.5971 65.5899 41.8411 64.0996 42.5474 62.8124C43.2537 61.5252 44.3798 60.5189 45.7379 59.961V36.9C44.9522 36.5776 44.238 36.103 43.6365 35.5034C43.035 34.9038 42.5581 34.1911 42.2332 33.4064C41.9084 32.6218 41.742 31.7805 41.7436 30.9313C41.7453 30.082 41.915 29.2414 42.2429 28.458L32.7329 18.942L7.58391 44.1C7.08003 44.6017 6.68021 45.198 6.40739 45.8547C6.13458 46.5113 5.99414 47.2154 5.99414 47.9265C5.99414 48.6376 6.13458 49.3416 6.40739 49.9983C6.68021 50.6549 7.08003 51.2513 7.58391 51.753L44.2589 88.416C44.7606 88.9194 45.3567 89.3188 46.0131 89.5914C46.6695 89.8639 47.3732 90.0042 48.0839 90.0042C48.7946 90.0042 49.4983 89.8639 50.1547 89.5914C50.8111 89.3188 51.4072 88.9194 51.9089 88.416L88.4159 51.9C88.9198 51.3983 89.3196 50.8019 89.5924 50.1453C89.8652 49.4886 90.0057 48.7846 90.0057 48.0735C90.0057 47.3624 89.8652 46.6583 89.5924 46.0017C89.3196 45.345 88.9198 44.7487 88.4159 44.247" fill="#DD4C35"/>
<path d="M36.4739 15.201L46.1339 24.861C47.273 24.4733 48.4981 24.4135 49.6696 24.6882C50.8411 24.9629 51.9119 25.5612 52.7599 26.4148C53.608 27.2685 54.1991 28.3432 54.4661 29.5165C54.7331 30.6898 54.6651 31.9145 54.2699 33.051L63.5699 42.351C64.96 41.8734 66.4718 41.8866 67.8534 42.3884C69.235 42.8902 70.4029 43.8503 71.1625 45.1086C71.9222 46.367 72.2277 47.8476 72.0282 49.3039C71.8287 50.7602 71.1361 52.1041 70.066 53.1117C68.9959 54.1194 67.6128 54.7299 66.1472 54.8416C64.6816 54.9533 63.2219 54.5594 62.0115 53.7255C60.801 52.8917 59.9129 51.6682 59.495 50.259C59.0771 48.8498 59.1547 47.3399 59.7149 45.981L51.0299 37.296V60.147C52.3455 60.7988 53.3981 61.8818 54.0123 63.2154C54.6266 64.549 54.7653 66.0528 54.4055 67.4763C54.0457 68.8998 53.2091 70.157 52.035 71.0386C50.8608 71.9202 49.4201 72.3729 47.9527 72.3213C46.4854 72.2698 45.08 71.717 43.9707 70.7552C42.8613 69.7933 42.115 68.4804 41.8561 67.0352C41.5971 65.5899 41.8411 64.0996 42.5474 62.8124C43.2537 61.5252 44.3798 60.5189 45.7379 59.961V36.9C44.9522 36.5776 44.238 36.103 43.6365 35.5034C43.035 34.9038 42.5581 34.1911 42.2333 33.4065C41.9084 32.6218 41.742 31.7805 41.7437 30.9313C41.7453 30.082 41.915 29.2414 42.2429 28.458L32.7329 18.942" fill="white"/>
</svg>
