<svg width="96" height="128" viewBox="0 0 96 128" fill="none" xmlns="http://www.w3.org/2000/svg">
<path d="M35.7127 98.12C35.7127 98.12 32.1375 100.894 38.2605 101.83C45.6795 102.96 49.4707 102.798 57.6442 100.738C57.6442 100.738 59.7975 102.533 62.799 104.089C44.4697 114.559 21.318 103.482 35.7127 98.12ZM33.4717 84.455C33.4717 84.455 29.4607 88.414 35.589 89.26C43.5142 90.351 49.7715 90.44 60.6045 87.66C60.6045 87.66 62.0992 89.685 64.4535 90.791C42.297 99.431 17.619 91.471 33.4717 84.455Z" fill="#0074BD"/>
<path d="M52.3514 61.271C56.8702 68.206 51.1664 74.441 51.1664 74.441C51.1664 74.441 62.6332 66.55 57.3682 56.664C52.4489 47.449 48.6779 42.872 69.0944 27.084C69.0944 27.085 37.0462 37.754 52.3514 61.271Z" fill="#EA2D2E"/>
<path d="M76.5923 108.229C76.5923 108.229 79.2391 111.139 73.6763 113.388C63.0998 117.66 29.6468 118.948 20.3558 113.559C17.0176 111.621 23.2801 108.934 25.2503 108.367C27.3046 107.774 28.4776 107.882 28.4776 107.882C24.7628 104.395 4.46781 114.732 18.1703 117.697C55.5361 125.773 86.2831 114.06 76.5923 108.229ZM37.4341 70.294C37.4341 70.294 20.4196 75.683 31.4093 77.642C36.0503 78.47 45.2978 78.28 53.9176 77.316C60.9601 76.527 68.0273 74.842 68.0273 74.842C68.0273 74.842 65.5463 76.261 63.7493 77.895C46.4678 83.956 13.0913 81.133 22.7011 74.937C30.8251 69.698 37.4341 70.294 37.4341 70.294ZM67.9568 93.041C85.5226 80.874 77.4001 69.181 71.7308 70.756C70.3448 71.141 69.7231 71.476 69.7231 71.476C69.7231 71.476 70.2391 70.397 71.2231 69.933C82.4378 64.678 91.0613 85.436 67.6058 93.658C67.6058 93.656 67.8751 93.331 67.9568 93.041Z" fill="#0074BD"/>
<path d="M57.3681 1.58698C57.3681 1.58698 67.0941 14.563 48.1409 34.51C32.9414 50.516 44.6751 59.64 48.1356 70.069C39.2624 59.396 32.7539 49.999 37.1196 41.254C43.5306 28.42 61.2914 22.195 57.3681 1.58698Z" fill="#EA2D2E"/>
<path d="M39.1605 126.021C56.0175 127.458 81.9105 125.221 82.5233 114.585C82.5233 114.585 81.345 118.617 68.5905 121.816C54.201 125.428 36.45 125.007 25.9253 122.69C25.9253 122.691 28.0815 125.071 39.1605 126.021Z" fill="#0074BD"/>
</svg>
