<svg width="96" height="96" viewBox="0 0 96 96" fill="none" xmlns="http://www.w3.org/2000/svg">
<path d="M47.6764 2.7226C46.8512 2.76417 46.0427 2.96875 45.2983 3.32436L12.8474 18.8297C12.0075 19.2309 11.2695 19.8145 10.6883 20.5374C10.107 21.2602 9.69747 22.1036 9.48998 23.005L1.48402 57.834C1.29916 58.6364 1.27847 59.4675 1.42319 60.278C1.56791 61.0886 1.87509 61.8621 2.32656 62.5528C2.43601 62.7216 2.55373 62.8851 2.6793 63.0426L25.1405 90.9695C25.7219 91.6922 26.46 92.2756 27.2999 92.6765C28.1398 93.0775 29.06 93.2856 29.9921 93.2854L66.0123 93.2772C66.9441 93.2779 67.8641 93.0704 68.704 92.6702C69.5439 92.27 70.2821 91.6874 70.8639 90.9655L93.3169 63.0342C93.8986 62.3112 94.3085 61.4674 94.5161 60.5657C94.7237 59.6639 94.7237 58.7274 94.5162 57.8256L86.4981 22.9966C86.2906 22.0952 85.881 21.2519 85.2997 20.529C84.7185 19.8062 83.9805 19.2226 83.1406 18.8215L50.6854 3.32422C49.749 2.87693 48.7144 2.67006 47.6764 2.7226Z" fill="#326CE5"/>
<path d="M47.9979 14.5753C46.9252 14.5755 46.0555 15.5416 46.0556 16.7335C46.0556 16.7518 46.0593 16.7693 46.0596 16.7874C46.0581 16.9494 46.0503 17.1445 46.0556 17.2854C46.0811 17.9728 46.2309 18.499 46.3212 19.1324C46.4846 20.4878 46.6214 21.6115 46.537 22.6559C46.4547 23.0497 46.1648 23.4099 45.9062 23.6602L45.8605 24.482C44.6789 24.5793 43.5056 24.7596 42.3493 25.0215C37.306 26.1667 32.9637 28.7646 29.6579 32.272C29.4219 32.1091 29.1881 31.9431 28.9565 31.774C28.6096 31.8209 28.2593 31.9279 27.8027 31.6619C26.9334 31.0769 26.1418 30.2693 25.1838 29.2963C24.7449 28.831 24.4271 28.3878 23.9055 27.9392C23.7872 27.8373 23.6065 27.6996 23.4739 27.5947C23.0662 27.2697 22.5854 27.1001 22.121 27.0843C21.5239 27.0638 20.9491 27.2973 20.573 27.769C19.9042 28.6077 20.1183 29.8897 21.0502 30.6326C21.0596 30.6402 21.0697 30.6461 21.0793 30.6535C21.2073 30.7572 21.3641 30.8903 21.4818 30.9772C22.0352 31.3858 22.5407 31.595 23.0921 31.9193C24.2538 32.6367 25.2169 33.2314 25.9807 33.9487C26.279 34.2667 26.3312 34.827 26.3709 35.0694L26.9933 35.6254C23.6608 40.6408 22.1183 46.8358 23.0299 53.1479L22.2165 53.3844C22.002 53.6614 21.6991 54.097 21.3822 54.227C20.3828 54.5417 19.2581 54.6573 17.9002 54.7997C17.2627 54.8528 16.7125 54.821 16.0367 54.9491C15.8879 54.9772 15.6807 55.0313 15.5179 55.0694L15.5013 55.0736C15.4924 55.0756 15.4807 55.08 15.4722 55.0819C14.3274 55.3585 13.592 56.4107 13.8287 57.4476C14.0655 58.4846 15.1838 59.1151 16.3355 58.8669C16.3438 58.8651 16.3559 58.8647 16.3646 58.8628C16.3776 58.8599 16.389 58.8535 16.4019 58.8503C16.5626 58.8151 16.7636 58.7759 16.9042 58.7383C17.5686 58.5604 18.0498 58.299 18.6473 58.0701C19.9323 57.6092 20.9968 57.2241 22.0339 57.074C22.4668 57.0401 22.9233 57.3412 23.1503 57.4683L23.9969 57.323C25.9452 63.3635 30.0283 68.2458 35.1985 71.3095L34.8456 72.1561C34.9729 72.4848 35.1131 72.9296 35.0183 73.2544C34.6414 74.2319 33.9957 75.2638 33.2603 76.4142C32.9042 76.9457 32.5398 77.3582 32.2186 77.9665C32.1417 78.112 32.0438 78.3357 31.9695 78.4893C31.4703 79.5575 31.8365 80.7876 32.7955 81.2494C33.7605 81.7138 34.9581 81.2239 35.4765 80.1537C35.4773 80.1521 35.4799 80.151 35.4806 80.1495C35.4811 80.1483 35.4801 80.1465 35.4806 80.1455C35.5544 79.9937 35.6591 79.7942 35.7214 79.6514C35.9966 79.021 36.0882 78.4807 36.2817 77.871C36.7957 76.5801 37.0779 75.2256 37.7854 74.3816C37.9791 74.1505 38.2949 74.0615 38.6224 73.9739L39.0623 73.177C43.5696 74.9071 48.6148 75.3714 53.6546 74.2271C54.7873 73.9695 55.9009 73.6339 56.9873 73.2227C57.1108 73.442 57.3407 73.8636 57.4023 73.9697C57.7352 74.078 58.0983 74.1339 58.3943 74.5715C58.9235 75.4759 59.2854 76.5457 59.7265 77.8378C59.92 78.4475 60.0157 78.9879 60.2909 79.6182C60.3536 79.7619 60.4577 79.9642 60.5316 80.1162C61.0489 81.19 62.2505 81.6817 63.217 81.2162C64.1757 80.7543 64.5423 79.5242 64.0428 78.4561C63.9685 78.3024 63.8665 78.0788 63.7896 77.9333C63.4682 77.325 63.1039 76.9166 62.7479 76.3853C62.0125 75.2349 61.4025 74.2792 61.0255 73.3015C60.8678 72.7973 61.0521 72.4838 61.1749 72.1561C61.1013 72.0718 60.9439 71.5957 60.8512 71.3717C66.2243 68.1991 70.1874 63.1347 72.0486 57.2857C72.3 57.3253 72.7368 57.4026 72.8786 57.431C73.1708 57.2384 73.4394 56.9869 73.9661 57.0284C75.003 57.1784 76.0675 57.5637 77.3527 58.0245C77.9501 58.2533 78.4312 58.519 79.0958 58.6968C79.2362 58.7344 79.4374 58.7694 79.5979 58.8048C79.6108 58.8078 79.6222 58.8142 79.6353 58.8171C79.644 58.8191 79.656 58.8194 79.6643 58.8214C80.8161 59.0692 81.9346 58.4389 82.1711 57.4019C82.4075 56.3651 81.6725 55.3126 80.5276 55.0363C80.3611 54.9983 80.1249 54.9341 79.9632 54.9035C79.2872 54.7755 78.7372 54.807 78.0997 54.7541C76.7418 54.6117 75.617 54.4961 74.6176 54.1813C74.2102 54.0233 73.9203 53.5384 73.7792 53.3388L72.9948 53.1106C73.4015 50.1682 73.2919 47.1061 72.5882 44.0422C71.8778 40.9499 70.6226 38.1216 68.9483 35.6297C69.1495 35.4467 69.5296 35.1103 69.6373 35.0112C69.6688 34.6627 69.6417 34.2974 70.0025 33.9114C70.7663 33.1943 71.7294 32.5994 72.8911 31.882C73.4425 31.5575 73.9523 31.3485 74.5055 30.9398C74.6306 30.8474 74.8017 30.701 74.933 30.5953C75.8647 29.8521 76.0792 28.5703 75.4104 27.7317C74.7414 26.8932 73.4452 26.814 72.5134 27.5573C72.3809 27.6624 72.2009 27.7994 72.0818 27.9018C71.5604 28.3505 71.2383 28.7935 70.7994 29.259C69.8414 30.232 69.0498 31.0437 68.1805 31.6288C67.8039 31.848 67.2522 31.7723 67.0019 31.7574L66.2632 32.2845C62.0505 27.8673 56.3152 25.0431 50.1395 24.4945C50.1222 24.2357 50.0996 23.7679 50.0938 23.627C49.8409 23.3852 49.5354 23.1786 49.4588 22.6559C49.3742 21.6115 49.5154 20.4878 49.6787 19.1324C49.7689 18.499 49.9187 17.973 49.9444 17.2854C49.9502 17.1292 49.9408 16.9024 49.9402 16.7335C49.9401 15.5416 49.0706 14.5753 47.9979 14.5753ZM45.5658 29.6408L44.9889 39.8296L44.9474 39.8505C44.9087 40.7619 44.1586 41.4897 43.2375 41.4897C42.8602 41.4897 42.512 41.3686 42.229 41.162L42.2124 41.1702L33.8579 35.2477C36.4255 32.7231 39.7099 30.8571 43.4948 29.9978C44.1786 29.8434 44.8698 29.7243 45.5658 29.6408ZM50.434 29.6408C54.8531 30.1843 58.9397 32.1853 62.0714 35.252L53.7708 41.137L53.7419 41.1246C53.0051 41.6626 51.967 41.5292 51.3928 40.8092C51.1658 40.5268 51.0349 40.1792 51.0193 39.8171L51.0109 39.8132L50.434 29.6408ZM30.8282 39.0536L38.4564 45.8767L38.4481 45.9181C39.1367 46.5167 39.2383 47.5554 38.6639 48.2754C38.4375 48.5598 38.1264 48.7648 37.7758 48.8606L37.7674 48.8938L27.9894 51.716C27.4918 47.1653 28.5643 42.7417 30.8282 39.0536ZM65.1136 39.0576C66.247 40.8947 67.1052 42.9466 67.6161 45.171C68.1209 47.3688 68.2476 49.5626 68.0395 51.6828L58.2117 48.8524L58.2033 48.8108C57.3233 48.5704 56.7824 47.6751 56.9873 46.7772C57.067 46.424 57.2575 46.1056 57.531 45.8683L57.5269 45.8476L65.1136 39.0577V39.0576ZM46.4332 46.4036H49.5584L51.5007 48.8316L50.8035 51.8613L47.9979 53.2101L45.184 51.8572L44.4867 48.8274L46.4332 46.4036ZM56.452 54.7125C56.5848 54.7059 56.7169 54.7178 56.8463 54.7416L56.8629 54.7208L66.977 56.4307C65.4967 60.5894 62.6643 64.192 58.8798 66.603L54.9538 57.1197L54.9661 57.1031C54.6055 56.2651 54.9664 55.2823 55.7962 54.8827C56.0087 54.7804 56.2306 54.7237 56.452 54.7125ZM39.465 54.754C40.2367 54.7649 40.9291 55.3006 41.1085 56.0863C41.1924 56.4542 41.1515 56.8185 41.0129 57.1404L41.0421 57.1777L37.1574 66.5657C33.5254 64.235 30.6326 60.7455 29.0851 56.4639L39.1121 54.7623L39.1287 54.7831C39.2409 54.7625 39.3546 54.7525 39.465 54.754ZM47.9355 58.867C48.2124 58.8574 48.4875 58.9158 48.7366 59.037C49.0766 59.2008 49.3392 59.4586 49.5044 59.7675H49.5418L54.4847 68.6988C53.8358 68.9157 53.1765 69.1 52.5092 69.2509C48.7289 70.1093 44.9606 69.8491 41.5485 68.6865L46.4789 59.7717H46.4872C46.6285 59.5075 46.8366 59.2849 47.0908 59.1262C47.3449 58.9674 47.6362 58.878 47.9356 58.8669L47.9355 58.867Z" fill="white" stroke="white" stroke-width="0.276684"/>
</svg>
