<svg width="96" height="96" viewBox="0 0 96 96" fill="none" xmlns="http://www.w3.org/2000/svg">
<path d="M84.5085 22.7505L51.4013 3.54676C49.3155 2.35876 46.5832 2.35876 44.481 3.54676L11.115 22.7505C8.96325 23.9888 7.5 26.316 7.5 28.8053V67.1618C7.5 69.651 8.994 71.979 11.1465 73.224L19.9432 78.24C24.1635 80.319 25.3328 80.319 27.2528 80.319C33.5033 80.319 36.7493 76.5398 36.7493 69.948V32.0805C36.75 31.5458 37.0837 30.75 36.558 30.75H32.3415C31.8075 30.75 30.75 31.5458 30.75 32.0798V69.9473C30.75 72.8693 28.038 75.777 23.0985 73.3073L14.007 68.0475C13.6905 67.875 13.5 67.5278 13.5 67.1618V28.8053C13.5 28.4438 13.8473 28.0808 14.1683 27.8955L47.4518 8.72476C47.763 8.54851 48.2032 8.54851 48.513 8.72476L81.4853 27.891C81.801 28.0808 81.7507 28.4325 81.7507 28.8053V67.1618C81.7507 67.5278 81.8197 67.884 81.5085 68.0603L48.4087 87.2423C48.1252 87.4125 47.7562 87.4125 47.445 87.2423L38.9573 82.1805C38.7015 82.032 38.3932 81.9788 38.1472 82.116C35.7885 83.4533 35.3505 83.631 33.138 84.3983C32.5927 84.588 31.7887 84.9173 33.444 85.845L44.5425 92.4105C45.6045 93.0255 46.8128 93.345 48.0278 93.345C49.2593 93.345 50.4645 93.0255 51.5273 92.4105L84.5092 73.224C86.6625 71.97 87.7507 69.651 87.7507 67.1618V28.8053C87.75 26.316 86.6618 23.9948 84.5085 22.7505ZM58.2952 61.0838C49.5 61.0838 47.5635 58.6575 46.9177 54.2843C46.8412 53.8133 46.4422 53.25 45.9622 53.25H41.6647C41.133 53.25 40.7048 53.895 40.7048 54.4245C40.7048 60.024 43.7497 66.8085 58.2952 66.8085C68.8237 66.8085 74.8613 62.7173 74.8613 55.4768C74.8613 48.2978 70.011 46.4138 59.7998 45.0623C49.4783 43.698 48.4297 43.0088 48.4297 40.5908C48.4297 38.5973 49.3177 35.9385 56.9603 35.9385C63.7882 35.9385 66.3053 37.404 67.341 42.0068C67.4303 42.4395 67.8255 42.75 68.2718 42.75H72.5872C72.8527 42.75 73.1055 42.6428 73.2915 42.453C73.4723 42.249 73.5667 41.9933 73.5435 41.7188C72.8737 33.792 67.6087 30.0983 56.9595 30.0983C47.4855 30.0983 41.835 34.0988 41.835 40.8045C41.835 48.078 47.4577 50.088 56.5515 50.9873C67.4303 52.0538 68.2763 53.6438 68.2763 55.7835C68.2763 59.5005 65.2927 61.0838 58.2952 61.0838Z" fill="#83CD29"/>
</svg>
