<svg width="96" height="96" viewBox="0 0 96 96" fill="none" xmlns="http://www.w3.org/2000/svg">
<g clip-path="url(#clip0_38_637)">
<path d="M95.6074 54.0949C98.9668 27.7956 80.3942 3.75198 54.1429 0.392581C27.8916 -2.96681 3.75198 15.6058 0.392581 41.8571C-2.96681 68.1084 15.6058 92.2 41.8571 95.6074C68.1564 98.9668 92.2 80.3942 95.6074 54.0949Z" fill="#FF6C37"/>
<path d="M65.3249 30.8191L45.0725 51.0714L39.3616 45.3604C59.278 25.444 61.2456 27.1717 65.3249 30.8191Z" fill="white"/>
<path d="M45.0724 51.5513C44.9284 51.5513 44.8324 51.5033 44.7364 51.4073L38.9775 45.6964C38.7855 45.5044 38.7855 45.2165 38.9775 45.0245C59.2298 24.7721 61.3414 26.6918 65.6127 30.5311C65.7087 30.6271 65.7566 30.7231 65.7566 30.867C65.7566 31.011 65.7087 31.107 65.6127 31.203L45.3603 51.4073C45.3123 51.5033 45.1684 51.5513 45.0724 51.5513ZM40.0333 45.3604L45.0724 50.3995L64.6049 30.867C61.0535 27.6996 58.6539 26.7398 40.0333 45.3604Z" fill="#FF6C37"/>
<path d="M50.8794 56.8784L45.3604 51.3594L65.6127 31.1071C71.0357 36.5781 62.9252 45.4565 50.8794 56.8784Z" fill="white"/>
<path d="M50.8794 57.3583C50.7354 57.3583 50.6394 57.3103 50.5435 57.2143L45.0245 51.6953C44.9285 51.5993 44.9285 51.5033 44.9285 51.3593C44.9285 51.2154 44.9765 51.1194 45.0724 51.0234L65.3248 30.771C65.5168 30.5791 65.8047 30.5791 65.9967 30.771C67.2444 31.9228 67.9163 33.5545 67.8683 35.2342C67.7723 40.5613 61.7254 47.3281 51.2633 57.2143C51.1194 57.3103 50.9754 57.3583 50.8794 57.3583ZM46.0323 51.3593C49.1037 54.4788 50.3995 55.7266 50.8794 56.2065C58.9419 48.5278 66.7645 40.6573 66.8125 35.2342C66.8605 33.9865 66.3806 32.7387 65.5647 31.7789L46.0323 51.3593Z" fill="#FF6C37"/>
<path d="M39.4573 45.5045L43.5366 49.5837C43.6326 49.6797 43.6326 49.7757 43.5366 49.8717C43.4886 49.9197 43.4886 49.9197 43.4406 49.9197L34.9941 51.7433C34.5622 51.7913 34.1783 51.5034 34.0823 51.0715C34.0343 50.8315 34.1303 50.5915 34.2743 50.4476L39.1694 45.5525C39.2654 45.4565 39.4093 45.4085 39.4573 45.5045Z" fill="white"/>
<path d="M34.8503 52.2232C34.1304 52.2232 33.6025 51.6473 33.6025 50.9275C33.6025 50.5915 33.7465 50.2556 33.9865 50.0156L38.8816 45.1205C39.1695 44.8806 39.5535 44.8806 39.8414 45.1205L43.9207 49.1998C44.2086 49.4397 44.2086 49.8717 43.9207 50.1596C43.8247 50.2556 43.7287 50.3036 43.5847 50.3516L35.1383 52.1752C35.0423 52.1752 34.9463 52.2232 34.8503 52.2232ZM39.3135 46.0324L34.6104 50.7355C34.5144 50.8315 34.4664 50.9755 34.5624 51.1194C34.6104 51.2634 34.7543 51.3114 34.8983 51.2634L42.8169 49.5357L39.3135 46.0324Z" fill="#FF6C37"/>
<path d="M76.0267 19.5891C72.9553 16.6136 68.0122 16.7096 65.0367 19.8291C62.0613 22.9485 62.1572 27.8436 65.2767 30.8191C67.8202 33.2666 71.6595 33.6986 74.683 31.8749L69.212 26.4039L76.0267 19.5891Z" fill="white"/>
<path d="M70.6517 33.4586C66.0926 33.4586 62.3972 29.7633 62.3972 25.2041C62.3972 20.6449 66.0926 16.9496 70.6517 16.9496C72.7634 16.9496 74.827 17.7654 76.3627 19.2532C76.4587 19.3492 76.5067 19.4451 76.5067 19.5891C76.5067 19.7331 76.4587 19.8291 76.3627 19.925L69.8839 26.4039L74.9709 31.491C75.1629 31.6829 75.1629 31.9709 74.9709 32.1628C74.923 32.2108 74.923 32.2108 74.875 32.2588C73.6272 33.0267 72.1395 33.4586 70.6517 33.4586ZM70.6517 17.9574C66.6205 17.9574 63.357 21.2208 63.405 25.2521C63.405 29.2834 66.6684 32.5468 70.6997 32.4988C71.8035 32.4988 72.9073 32.2588 73.9151 31.7309L68.876 26.7398C68.7801 26.6438 68.7321 26.5479 68.7321 26.4039C68.7321 26.2599 68.7801 26.1639 68.876 26.0679L75.3069 19.6371C74.0111 18.5333 72.3794 17.9574 70.6517 17.9574Z" fill="#FF6C37"/>
<path d="M76.1709 19.7331L76.0749 19.6371L69.2122 26.4039L74.6352 31.8269C75.1631 31.4909 75.691 31.107 76.1229 30.6751C79.1944 27.6516 79.1944 22.7565 76.1709 19.7331Z" fill="white"/>
<path d="M74.6831 32.3549C74.5391 32.3549 74.4431 32.3069 74.3472 32.2109L68.8762 26.7399C68.7802 26.6439 68.7322 26.5479 68.7322 26.4039C68.7322 26.26 68.7802 26.164 68.8762 26.068L75.6909 19.2532C75.8829 19.0613 76.1708 19.0613 76.3628 19.2532L76.5068 19.3492C79.7222 22.5646 79.7222 27.7477 76.5548 31.0111C76.0749 31.491 75.5469 31.9229 74.9711 32.2589C74.8271 32.3069 74.7311 32.3549 74.6831 32.3549ZM69.884 26.4039L74.7311 31.2511C75.115 31.0111 75.499 30.6752 75.7869 30.3872C78.5224 27.6517 78.6664 23.1885 76.0269 20.309L69.884 26.4039Z" fill="#FF6C37"/>
<path d="M66.1405 31.6829C64.9888 30.5311 63.1171 30.5311 61.9653 31.6829L43.8726 49.7757L46.896 52.7991L66.0446 36.0022C67.2923 34.9463 67.3883 33.0747 66.3325 31.8269C66.2365 31.7789 66.1885 31.7309 66.1405 31.6829Z" fill="white"/>
<path d="M46.8481 53.2791C46.7041 53.2791 46.6081 53.2311 46.5122 53.1351L43.4887 50.1117C43.2967 49.9197 43.2967 49.6318 43.4887 49.4398L61.5814 31.3471C62.9252 30.0033 65.0848 30.0033 66.4286 31.3471C67.7723 32.6908 67.7723 34.8504 66.4286 36.1942C66.3806 36.2422 66.3326 36.2902 66.2846 36.3382L47.136 53.1351C47.0881 53.2311 46.9921 53.2791 46.8481 53.2791ZM44.5445 49.7757L46.8961 52.1273L65.7087 35.6183C66.7645 34.7544 66.8605 33.1707 65.9966 32.1149C65.1328 31.0591 63.5491 30.9631 62.4933 31.827C62.4453 31.875 62.3973 31.9229 62.3013 31.9709L44.5445 49.7757Z" fill="#FF6C37"/>
<path d="M30.0032 70.3639C29.8112 70.4599 29.7153 70.6519 29.7633 70.8438L30.5791 74.2992C30.7711 74.7791 30.4831 75.355 29.9552 75.499C29.5713 75.643 29.1394 75.499 28.8994 75.2111L23.6204 69.98L40.8493 52.7511L46.8002 52.8471L50.8315 56.8784C49.8716 57.6942 44.0647 63.3092 30.0032 70.3639Z" fill="white"/>
<path d="M29.6192 75.979C29.2352 75.979 28.8513 75.835 28.6114 75.547L23.3803 70.316C23.2843 70.22 23.2363 70.124 23.2363 69.98C23.2363 69.8361 23.2843 69.7401 23.3803 69.6441L40.6092 52.4152C40.7052 52.3192 40.8492 52.2712 40.9451 52.2712L46.8961 52.3672C47.04 52.3672 47.136 52.4152 47.232 52.5112L51.2633 56.5425C51.3593 56.6385 51.4072 56.7824 51.4072 56.9264C51.4072 57.0704 51.3593 57.1664 51.2153 57.2623L50.8793 57.5503C45.7923 62.0135 38.8815 66.4767 30.2911 70.7479L31.1069 74.1553C31.2509 74.7792 30.9629 75.4511 30.387 75.787C30.0991 75.931 29.8591 75.979 29.6192 75.979ZM24.3401 69.98L29.2832 74.8752C29.4272 75.1151 29.7152 75.2111 29.9551 75.0671C30.1951 74.9232 30.2911 74.6352 30.1471 74.3953L29.3312 70.9399C29.2352 70.5079 29.4272 70.124 29.8111 69.9321C38.3056 65.6608 45.1684 61.2456 50.2075 56.8784L46.6561 53.327L41.1371 53.2311L24.3401 69.98Z" fill="#FF6C37"/>
<path d="M19.5409 74.1072L23.6682 69.98L29.8111 76.1229L20.0208 75.451C19.5889 75.403 19.301 75.0191 19.349 74.5872C19.349 74.3952 19.397 74.2032 19.5409 74.1072Z" fill="white"/>
<path d="M29.8112 76.5549L19.973 75.883C19.2531 75.835 18.7732 75.2111 18.8212 74.4912C18.8692 74.2033 18.9651 73.9153 19.2051 73.7234L23.3324 69.5961C23.5243 69.4042 23.8123 69.4042 24.0042 69.5961L30.1471 75.739C30.2911 75.883 30.3391 76.075 30.2431 76.2669C30.1471 76.4589 30.0032 76.5549 29.8112 76.5549ZM23.6683 70.6519L19.877 74.4432C19.733 74.5392 19.733 74.7792 19.877 74.8752C19.925 74.9232 19.973 74.9711 20.0689 74.9711L28.5634 75.547L23.6683 70.6519Z" fill="#FF6C37"/>
<path d="M39.1696 54.9587C38.8817 54.9587 38.6897 54.7188 38.6897 54.4788C38.6897 54.3349 38.7377 54.2389 38.8337 54.1429L43.4888 49.4877C43.6808 49.2958 43.9687 49.2958 44.1607 49.4877L47.1842 52.5112C47.3281 52.6552 47.3761 52.7991 47.3281 52.9911C47.2801 53.1351 47.1362 53.279 46.9442 53.327L39.2656 54.9587C39.2176 54.9587 39.1696 54.9587 39.1696 54.9587ZM43.8248 50.4955L40.6573 53.663L45.8404 52.5592L43.8248 50.4955Z" fill="#FF6C37"/>
<path d="M46.8001 52.8472L41.521 53.999C41.1371 54.0949 40.7532 53.855 40.6572 53.4711C40.6092 53.2311 40.6572 52.9911 40.8492 52.7992L43.7766 49.8717L46.8001 52.8472Z" fill="white"/>
<path d="M41.4251 54.4788C40.7532 54.4788 40.2253 53.9509 40.2253 53.279C40.2253 52.9431 40.3693 52.6552 40.5613 52.4152L43.4888 49.4877C43.6807 49.2958 43.9687 49.2958 44.1606 49.4877L47.1841 52.5112C47.3281 52.6552 47.3761 52.7991 47.3281 52.9911C47.2801 53.1351 47.1361 53.279 46.9441 53.327L41.6651 54.4788C41.5691 54.4788 41.4731 54.4788 41.4251 54.4788ZM43.8247 50.4955L41.2332 53.0871C41.1372 53.1831 41.1372 53.279 41.1852 53.375C41.2332 53.471 41.3291 53.519 41.4731 53.519L45.8883 52.5592L43.8247 50.4955Z" fill="#FF6C37"/>
<path d="M76.2187 24.3403C76.1227 24.0523 75.7868 23.9084 75.4988 24.0043C75.2109 24.1003 75.0669 24.4363 75.1629 24.7242C75.1629 24.7722 75.2109 24.8202 75.2109 24.8682C75.4988 25.4441 75.4029 26.164 75.0189 26.6919C74.827 26.9318 74.875 27.2678 75.0669 27.4597C75.3069 27.6517 75.6428 27.6037 75.8348 27.3637C76.5547 26.4519 76.6986 25.3001 76.2187 24.3403Z" fill="#FF6C37"/>
</g>
<defs>
<clipPath id="clip0_38_637">
<rect width="96" height="96" fill="white"/>
</clipPath>
</defs>
</svg>
