<svg width="96" height="96" viewBox="0 0 96 96" fill="none" xmlns="http://www.w3.org/2000/svg">
<path d="M47.655 6.29998C26.355 6.29998 27.702 15.51 27.702 15.51V25.08H47.958V28.08H19.635C19.635 28.08 6 26.4 6 48.015C6 69.63 18.039 68.751 18.039 68.751H24.99V58.668C24.99 58.668 24.6 46.629 36.69 46.629H56.976C56.976 46.629 68.292 46.809 68.292 35.673V17.4C68.292 17.4 70.008 6.26398 47.766 6.26398L47.655 6.29998ZM36.459 12.711C37.1791 12.6928 37.8885 12.8886 38.4973 13.2736C39.1061 13.6586 39.5871 14.2155 39.8795 14.8738C40.1718 15.5322 40.2623 16.2625 40.1396 16.9723C40.0169 17.6821 39.6864 18.3396 39.19 18.8616C38.6936 19.3836 38.0536 19.7467 37.3508 19.9049C36.6481 20.0631 35.9142 20.0094 35.2419 19.7505C34.5697 19.4916 33.9894 19.0392 33.5743 18.4504C33.1592 17.8617 32.928 17.1631 32.91 16.443V16.383C32.91 15.9047 33.0042 15.4311 33.1872 14.9892C33.3703 14.5474 33.6385 14.1459 33.9767 13.8077C34.3149 13.4695 34.7164 13.2012 35.1583 13.0182C35.6001 12.8352 36.0737 12.741 36.552 12.741L36.459 12.711Z" fill="url(#paint0_linear_38_621)"/>
<path d="M48.255 89.73C69.555 89.73 68.208 80.49 68.208 80.49V70.95H47.955V67.95H76.365C76.365 67.95 90 69.474 90 47.985C90 26.496 77.961 27.249 77.961 27.249H70.92V37.2C70.92 37.2 71.31 49.239 59.22 49.239H38.925C38.925 49.239 27.6 49.068 27.6 60.204V78.6C27.6 78.6 25.884 89.736 48.126 89.736H48.246L48.255 89.73ZM59.451 83.289C58.7309 83.3072 58.0215 83.1114 57.4127 82.7264C56.8039 82.3414 56.3229 81.7845 56.0305 81.1262C55.7382 80.4678 55.6477 79.7375 55.7704 79.0277C55.8931 78.3179 56.2236 77.6604 56.72 77.1384C57.2164 76.6164 57.8564 76.2533 58.5592 76.0951C59.2619 75.9369 59.9958 75.9906 60.6681 76.2495C61.3403 76.5084 61.9206 76.9608 62.3357 77.5496C62.7508 78.1383 62.982 78.8369 63 79.557V79.647C63 80.6129 62.6163 81.5393 61.9333 82.2223C61.2503 82.9053 60.3239 83.289 59.358 83.289H59.451Z" fill="url(#paint1_linear_38_621)"/>
<defs>
<linearGradient id="paint0_linear_38_621" x1="14.3015" y1="14.4687" x2="54.1615" y2="54.2384" gradientUnits="userSpaceOnUse">
<stop stop-color="#387EB8"/>
<stop offset="1" stop-color="#366994"/>
</linearGradient>
<linearGradient id="paint1_linear_38_621" x1="37.8825" y1="40.3757" x2="83.4231" y2="80.1335" gradientUnits="userSpaceOnUse">
<stop stop-color="#FFE052"/>
<stop offset="1" stop-color="#FFC331"/>
</linearGradient>
</defs>
</svg>
