<svg width="96" height="96" viewBox="0 0 96 96" fill="none" xmlns="http://www.w3.org/2000/svg">
<path d="M48 56.55C52.722 56.55 56.55 52.722 56.55 48C56.55 43.278 52.722 39.45 48 39.45C43.2779 39.45 39.45 43.278 39.45 48C39.45 52.722 43.2779 56.55 48 56.55Z" fill="#61DAFB"/>
<path d="M80.4751 33.9C78.8251 33.3 77.1001 32.7 75.3001 32.175C75.7501 30.375 76.1251 28.575 76.4251 26.85C78.0001 16.95 76.2751 9.97501 71.4751 7.27501C70.0501 6.45001 68.4751 6.07501 66.6751 6.07501C61.4251 6.07501 54.7501 9.97501 48 16.5C41.25 9.97501 34.5751 6.07501 29.325 6.07501C27.525 6.07501 25.9501 6.45001 24.5251 7.27501C19.7251 10.05 18.0001 17.025 19.5751 26.85C19.8751 28.575 20.2501 30.375 20.7001 32.175C18.9001 32.7 17.1751 33.225 15.5251 33.9C6.15005 37.5 1.05005 42.45 1.05005 48C1.05005 53.55 6.22505 58.5 15.5251 62.1C17.1751 62.7 18.9001 63.3 20.7001 63.825C20.2501 65.625 19.8751 67.425 19.5751 69.15C18.0001 79.05 19.7251 86.025 24.5251 88.725C25.9501 89.55 27.525 89.925 29.325 89.925C34.65 89.925 41.3251 86.025 48 79.5C54.7501 86.025 61.4251 89.925 66.6751 89.925C68.4751 89.925 70.0501 89.55 71.4751 88.725C76.2751 85.95 78.0001 78.975 76.4251 69.15C76.1251 67.425 75.7501 65.625 75.3001 63.825C77.1001 63.3 78.8251 62.775 80.4751 62.1C89.8501 58.5 94.9501 53.55 94.9501 48C94.9501 42.45 89.8501 37.5 80.4751 33.9ZM69.3751 11.025C72.4501 12.825 73.5001 18.375 72.2251 26.25C72.0001 27.825 71.6251 29.475 71.1751 31.2C67.2751 30.3 63.1501 29.7 58.8001 29.325C56.2501 25.725 53.6251 22.5 51.0001 19.575C56.5501 14.1 62.1751 10.35 66.7501 10.35C67.7251 10.35 68.6251 10.575 69.3751 11.025ZM60.9751 55.5C59.6251 57.9 58.05 60.3 56.4001 62.7C53.625 62.925 50.8501 63 48 63C45.0751 63 42.3 62.925 39.6001 62.7C37.9501 60.3 36.4501 57.9 35.1 55.5C33.675 53.025 32.3251 50.475 31.125 48C32.3251 45.525 33.675 42.975 35.1 40.5C36.4501 38.1 38.0251 35.7 39.6751 33.3C42.4501 33.075 45.2251 33 48.0751 33C51 33 53.7751 33.075 56.4751 33.3C58.1251 35.7 59.6251 38.1 60.9751 40.5C62.4001 42.975 63.7501 45.525 64.9501 48C63.6751 50.475 62.4001 52.95 60.9751 55.5ZM67.2001 53.025C68.3251 55.65 69.2251 58.2 70.0501 60.75C67.5001 61.35 64.8001 61.8 61.9501 62.175C62.8501 60.75 63.8251 59.25 64.6501 57.675C65.55 56.1 66.3751 54.525 67.2001 53.025ZM48 73.35C46.2001 71.4 44.4751 69.3 42.8251 67.125C44.55 67.2 46.2751 67.275 48 67.275C49.7251 67.275 51.4501 67.2 53.1751 67.125C51.5251 69.3 49.8001 71.4 48 73.35ZM34.0501 62.1C31.2001 61.725 28.5 61.275 25.95 60.675C26.775 58.2 27.6751 55.575 28.8001 52.95C29.6251 54.45 30.4501 56.025 31.35 57.525C32.25 59.175 33.1501 60.6 34.0501 62.1ZM28.8001 42.975C27.6751 40.35 26.775 37.8 25.95 35.25C28.5 34.65 31.2001 34.2 34.0501 33.825C33.1501 35.25 32.175 36.75 31.35 38.325C30.4501 39.9 29.6251 41.475 28.8001 42.975ZM48 22.65C49.8001 24.6 51.5251 26.7 53.1751 28.875C51.4501 28.8 49.7251 28.725 48 28.725C46.2751 28.725 44.55 28.8 42.8251 28.875C44.4751 26.7 46.2001 24.6 48 22.65ZM64.6501 38.4L61.9501 33.9C64.8001 34.275 67.5001 34.725 70.0501 35.325C69.2251 37.8 68.3251 40.425 67.2001 43.05C66.3751 41.475 65.55 39.9 64.6501 38.4ZM23.7751 26.25C22.5001 18.375 23.55 12.825 26.625 11.025C27.375 10.575 28.275 10.35 29.25 10.35C33.75 10.35 39.375 14.025 45 19.575C42.375 22.425 39.75 25.725 37.2001 29.325C32.85 29.7 28.725 30.375 24.8251 31.2C24.375 29.475 24.0751 27.825 23.7751 26.25ZM5.25005 48C5.25005 44.475 9.52505 40.725 17.0251 37.95C18.5251 37.35 20.1751 36.825 21.8251 36.375C23.0251 40.125 24.525 44.1 26.325 48.075C24.525 52.05 22.9501 55.95 21.8251 59.7C11.475 56.7 5.25005 52.2 5.25005 48ZM26.625 84.975C23.55 83.175 22.5001 77.625 23.7751 69.75C24.0001 68.175 24.375 66.525 24.8251 64.8C28.725 65.7 32.85 66.3 37.2001 66.675C39.75 70.275 42.375 73.5 45 76.425C39.4501 81.9 33.8251 85.65 29.25 85.65C28.275 85.65 27.375 85.425 26.625 84.975ZM72.2251 69.75C73.5001 77.625 72.4501 83.175 69.3751 84.975C68.6251 85.425 67.7251 85.65 66.7501 85.65C62.2501 85.65 56.6251 81.975 51.0001 76.425C53.6251 73.575 56.2501 70.275 58.8001 66.675C63.1501 66.3 67.2751 65.625 71.1751 64.8C71.6251 66.525 71.9251 68.175 72.2251 69.75ZM78.9751 58.05C77.4751 58.65 75.8251 59.175 74.1751 59.625C72.9751 55.875 71.4751 51.9 69.6751 47.925C71.4751 43.95 73.0501 40.05 74.1751 36.3C84.5251 39.3 90.7501 43.8 90.7501 48C90.7501 51.525 86.4001 55.275 78.9751 58.05Z" fill="#61DAFB"/>
</svg>
