<svg width="96" height="96" viewBox="0 0 96 96" fill="none" xmlns="http://www.w3.org/2000/svg">
<g clip-path="url(#clip0_38_687)">
<path d="M45.0001 11.3101C45.0001 10.9354 45.0739 10.5644 45.2173 10.2183C45.3606 9.87211 45.5708 9.5576 45.8357 9.29268C46.1007 9.02775 46.4152 8.8176 46.7613 8.67422C47.1074 8.53085 47.4784 8.45705 47.8531 8.45705C48.2278 8.45705 48.5988 8.53085 48.9449 8.67422C49.291 8.8176 49.6055 9.02775 49.8705 9.29268C50.1354 9.5576 50.3455 9.87211 50.4889 10.2183C50.6323 10.5644 50.7061 10.9354 50.7061 11.3101C50.7061 12.0667 50.4055 12.7924 49.8705 13.3274C49.3354 13.8625 48.6098 14.1631 47.8531 14.1631C47.0964 14.1631 46.3708 13.8625 45.8357 13.3274C45.3007 12.7924 45.0001 12.0667 45.0001 11.3101ZM10.9621 37.1401C10.9621 36.7654 11.0359 36.3944 11.1793 36.0483C11.3227 35.7021 11.5328 35.3876 11.7977 35.1227C12.0627 34.8577 12.3772 34.6476 12.7233 34.5042C13.0694 34.3608 13.4404 34.287 13.8151 34.287C14.1898 34.287 14.5608 34.3608 14.9069 34.5042C15.253 34.6476 15.5676 34.8577 15.8325 35.1227C16.0974 35.3876 16.3076 35.7021 16.4509 36.0483C16.5943 36.3944 16.6681 36.7654 16.6681 37.1401C16.6681 37.8967 16.3675 38.6224 15.8325 39.1574C15.2974 39.6925 14.5718 39.993 13.8151 39.993C13.0584 39.993 12.3328 39.6925 11.7977 39.1574C11.2627 38.6224 10.9621 37.8967 10.9621 37.1401ZM79.0381 37.272C79.0381 36.5154 79.3387 35.7897 79.8737 35.2547C80.4088 34.7196 81.1344 34.419 81.8911 34.419C82.6478 34.419 83.3734 34.7196 83.9085 35.2547C84.4435 35.7897 84.7441 36.5154 84.7441 37.272C84.7441 38.0287 84.4435 38.7544 83.9085 39.2894C83.3734 39.8245 82.6478 40.125 81.8911 40.125C81.1344 40.125 80.4088 39.8245 79.8737 39.2894C79.3387 38.7544 79.0381 38.0287 79.0381 37.272ZM19.2181 41.19C19.8485 40.9085 20.3417 40.3886 20.5896 39.7443C20.8376 39.0999 20.8201 38.3836 20.5411 37.752L19.2751 34.8901H24.2551V57.3301H14.2081C12.9684 52.9751 12.5823 48.4216 13.0711 43.9201L19.2181 41.19ZM40.0441 41.7421V35.127H51.9001C52.5121 35.127 56.2201 35.8351 56.2201 38.6071C56.2201 40.9111 53.3701 41.7391 51.0301 41.7391L40.0441 41.7421ZM23.8561 77.3551C23.8561 76.9804 23.9299 76.6094 24.0733 76.2633C24.2167 75.9171 24.4268 75.6026 24.6917 75.3377C24.9567 75.0728 25.2712 74.8626 25.6173 74.7192C25.9634 74.5759 26.3344 74.5021 26.7091 74.5021C27.0838 74.5021 27.4548 74.5759 27.8009 74.7192C28.147 74.8626 28.4616 75.0728 28.7265 75.3377C28.9914 75.6026 29.2016 75.9171 29.3449 76.2633C29.4883 76.6094 29.5621 76.9804 29.5621 77.3551C29.5621 78.1117 29.2615 78.8374 28.7265 79.3724C28.1914 79.9075 27.4658 80.2081 26.7091 80.2081C25.9524 80.2081 25.2268 79.9075 24.6917 79.3724C24.1567 78.8374 23.8561 78.1117 23.8561 77.3551ZM66.1351 77.4871C66.1351 76.7304 66.4357 76.0047 66.9707 75.4697C67.5058 74.9346 68.2314 74.6341 68.9881 74.6341C69.7448 74.6341 70.4704 74.9346 71.0055 75.4697C71.5405 76.0047 71.8411 76.7304 71.8411 77.4871C71.8411 78.2437 71.5405 78.9694 71.0055 79.5044C70.4704 80.0395 69.7448 80.3401 68.9881 80.3401C68.2314 80.3401 67.5058 80.0395 66.9707 79.5044C66.4357 78.9694 66.1351 78.2437 66.1351 77.4871ZM67.0171 71.0161C65.6071 70.7161 64.2271 71.6101 63.9271 73.0171L62.4961 79.701C57.8906 81.787 52.889 82.8543 47.8332 82.8299C42.7774 82.8056 37.7863 81.6902 33.2011 79.5601L31.7701 72.8761C31.4701 71.466 30.0901 70.5721 28.6801 70.8751L22.7791 72.1411C21.6827 71.0118 20.6634 69.8101 19.7281 68.5441H48.4381C48.7621 68.5441 48.9781 68.4841 48.9781 68.19V58.035C48.9781 57.7351 48.7621 57.6811 48.4381 57.6811H40.0381V51.243H49.1191C49.9471 51.243 53.5501 51.4831 54.7051 56.0851L56.4001 63.5851C56.9401 65.2351 59.1391 68.5441 61.4791 68.5441H76.2991C75.3045 69.8744 74.2167 71.1326 73.0441 72.3091L67.0171 71.0161ZM82.9591 44.202C83.1609 46.229 83.186 48.2697 83.0341 50.3011H79.4341C79.0741 50.3011 78.9241 50.5411 78.9241 50.8921V52.5481C78.9241 56.4481 76.7281 57.2881 74.8021 57.5071C72.9721 57.7171 70.9321 56.7391 70.6861 55.6171C69.6061 49.5331 67.8061 48.2371 64.9861 45.9871C68.5171 43.7431 72.1921 40.437 72.1921 36.0061C72.1921 31.2241 68.9131 28.212 66.6781 26.736C63.5431 24.666 60.0721 24.2551 59.1361 24.2551H21.8311C26.9841 18.4973 33.8916 14.5991 41.4841 13.1641L45.8791 17.7751C46.8691 18.8161 48.5191 18.8551 49.5571 17.8591L54.4771 13.1581C59.4887 14.0964 64.236 16.1145 68.3893 19.0721C72.5426 22.0297 76.0023 25.8559 78.5281 30.2851L75.1621 37.8871C74.8831 38.5186 74.8656 39.2349 75.1136 39.8793C75.3615 40.5236 75.8547 41.0435 76.4851 41.3251L82.9591 44.202ZM91.3531 44.3221L91.2391 43.146L94.7071 39.912C95.4121 39.252 95.1481 37.932 94.2481 37.5961L89.8171 35.94L89.4691 34.8001L92.2291 30.96C92.7931 30.18 92.2741 28.9351 91.3291 28.7791L86.6551 28.0201L86.0941 26.9701L88.0591 22.6591C88.4611 21.7801 87.7141 20.6581 86.7481 20.6941L82.0081 20.8591L81.2581 19.9501L82.3471 15.3301C82.5661 14.3911 81.6151 13.4401 80.6761 13.6591L76.0561 14.7481L75.1441 13.9981L75.3091 9.25805C75.3451 8.29805 74.2231 7.54805 73.3471 7.94705L69.0391 9.91205L67.9891 9.34805L67.2271 4.67405C67.0771 3.72605 65.8261 3.21005 65.0461 3.77405L61.2061 6.53405L60.0661 6.18905L58.4101 1.75805C58.0741 0.858052 56.7511 0.594052 56.0941 1.29605L52.8601 4.76405L51.6841 4.65005L49.1881 0.615052C48.6841 -0.200948 47.3281 -0.200948 46.8271 0.615052L44.3311 4.65005L43.1551 4.76405L39.9151 1.29005C39.2551 0.588052 37.9351 0.849052 37.5991 1.75205L35.9431 6.18305L34.8031 6.52805L30.9631 3.76805C30.1831 3.20405 28.9351 3.72305 28.7821 4.66805L28.0201 9.34205L26.9701 9.90605L22.6621 7.94105C21.7861 7.54205 20.6611 8.29205 20.7001 9.25205L20.8651 13.9921L19.9531 14.7421L15.3331 13.6531C14.3941 13.4341 13.4431 14.3851 13.6621 15.3241L14.7511 19.9441L14.0011 20.8531L9.2611 20.6881C8.3011 20.6581 7.5511 21.7741 7.9501 22.6531L9.9151 26.9641L9.3511 28.0141L4.6771 28.773C3.7291 28.923 3.2131 30.174 3.7771 30.9541L6.5371 34.794L6.1891 35.9341L1.7581 37.59C0.858104 37.926 0.594103 39.2491 1.2991 39.9061L4.7671 43.1401L4.6531 44.3161L0.618104 46.812C-0.197896 47.3161 -0.197896 48.6721 0.618104 49.1731L4.6531 51.6691L4.7671 52.8451L1.2901 56.0911C0.588104 56.7511 0.849104 58.0711 1.7491 58.4071L6.1801 60.0631L6.5281 61.203L3.7681 65.0431C3.2071 65.8231 3.7231 67.0711 4.6681 67.2241L9.3391 67.983L9.9031 69.0331L7.9381 73.3411C7.5391 74.2171 8.2921 75.342 9.2491 75.3061L13.9891 75.1411L14.7391 76.0531L13.6501 80.6731C13.4311 81.6091 14.3821 82.5631 15.3211 82.3411L19.9411 81.2521L20.8531 82.0021L20.6881 86.7421C20.6521 87.702 21.7741 88.452 22.6501 88.0531L26.9581 86.0881L28.0081 86.6521L28.7701 91.3231C28.9201 92.2741 30.1711 92.7871 30.9511 92.229L34.7911 89.4631L35.9311 89.8111L37.5871 94.2421C37.9231 95.1421 39.2461 95.4061 39.9031 94.701L43.1371 91.233L44.3131 91.3531L46.8091 95.3881C47.3131 96.1981 48.6631 96.2041 49.1701 95.3881L51.6661 91.3531L52.8421 91.233L56.0761 94.701C56.7361 95.4061 58.0561 95.1421 58.3921 94.2421L60.0481 89.8111L61.1881 89.4631L65.0281 92.229C65.8081 92.7901 67.0561 92.2741 67.2091 91.3231L67.9711 86.6521L69.0211 86.0881L73.3291 88.0531C74.2051 88.452 75.3271 87.7051 75.2911 86.7421L75.1261 82.0021L76.0351 81.2521L80.6551 82.3411C81.5941 82.5601 82.5451 81.6091 82.3261 80.6731L81.2371 76.0531L81.9871 75.1411L86.7271 75.3061C87.6871 75.3451 88.4371 74.2171 88.0381 73.3411L86.0731 69.0331L86.6341 67.983L91.3081 67.2241C92.2591 67.0741 92.7781 65.826 92.2081 65.0431L89.4481 61.203L89.7961 60.0631L94.2271 58.4071C95.1271 58.0681 95.3911 56.7481 94.6861 56.0911L91.2181 52.8571L91.3321 51.6811L95.3671 49.1851C96.1831 48.6811 96.1861 47.3311 95.3671 46.8241L91.3531 44.3221Z" fill="white"/>
</g>
<defs>
<clipPath id="clip0_38_687">
<rect width="96" height="96" fill="white"/>
</clipPath>
</defs>
</svg>
