<svg width="96" height="96" viewBox="0 0 96 96" fill="none" xmlns="http://www.w3.org/2000/svg">
<path d="M87.0301 15.09L69.7321 6.76202C68.7552 6.29102 67.656 6.13559 66.5869 6.31727C65.5177 6.49896 64.5315 7.00877 63.7651 7.77603L7.14009 59.4C6.45306 60.0234 6.04181 60.8942 5.9968 61.8208C5.95179 62.7474 6.27671 63.654 6.90009 64.341C6.97509 64.422 7.05009 64.5 7.13109 64.572L11.7541 68.772C12.3582 69.3218 13.1358 69.6427 13.9518 69.6788C14.7678 69.715 15.5707 69.4642 16.2211 68.97L84.4261 17.25C84.9413 16.8591 85.5553 16.6197 86.1992 16.5589C86.843 16.498 87.491 16.6181 88.0703 16.9055C88.6496 17.193 89.1372 17.6365 89.4781 18.186C89.819 18.7355 89.9998 19.3693 90.0001 20.016V19.815C90 18.8277 89.7213 17.8605 89.1958 17.0246C88.6704 16.1887 87.9197 15.5182 87.0301 15.09Z" fill="#0065A9"/>
<path d="M87.0301 80.9099L69.7321 89.2409C68.7549 89.7106 67.656 89.8653 66.5872 89.6837C65.5183 89.5021 64.5322 88.993 63.7651 88.2269L7.14009 36.5999C6.45306 35.9765 6.04181 35.1058 5.9968 34.1791C5.95179 33.2525 6.27671 32.346 6.90009 31.6589C6.97509 31.5779 7.05009 31.4999 7.13109 31.4279L11.7541 27.2279C12.3588 26.6758 13.1382 26.3536 13.9562 26.3174C14.7742 26.2812 15.579 26.5334 16.2301 27.0299L84.4261 78.7499C84.9413 79.1409 85.5553 79.3802 86.1992 79.4411C86.843 79.502 87.491 79.3819 88.0703 79.0944C88.6496 78.807 89.1372 78.3635 89.4781 77.814C89.819 77.2644 89.9998 76.6306 90.0001 75.9839V76.1999C89.9969 77.1846 89.7166 78.1485 89.1914 78.9814C88.6662 79.8143 87.9172 80.4826 87.0301 80.9099Z" fill="#007ACC"/>
<path d="M69.7319 89.2409C68.7548 89.7106 67.6559 89.8653 66.587 89.6837C65.5182 89.502 64.5321 88.993 63.7649 88.2269C64.1957 88.6521 64.7425 88.9407 65.3366 89.0565C65.9307 89.1724 66.5458 89.1103 67.1048 88.878C67.6637 88.6458 68.1417 88.2537 68.4789 87.751C68.816 87.2483 68.9973 86.6572 68.9999 86.0519V9.94794C69.0004 9.33981 68.8204 8.74521 68.4827 8.23946C68.145 7.73371 67.6648 7.33958 67.1029 7.10698C66.541 6.87438 65.9227 6.81379 65.3264 6.93288C64.73 7.05197 64.1824 7.34538 63.7529 7.77594C64.5195 7.00897 65.5055 6.49913 66.5744 6.31693C67.6434 6.13474 68.7426 6.2892 69.7199 6.75894L87.0149 15.0749C87.9074 15.5009 88.6612 16.1706 89.1893 17.0066C89.7175 17.8427 89.9985 18.811 89.9999 19.7999V76.1999C90.0002 77.1881 89.7212 78.1562 89.1952 78.9927C88.6692 79.8291 87.9176 80.5 87.0269 80.9279L69.7319 89.2409Z" fill="#1F9CF0"/>
</svg>
