<svg width="70" height="70" viewBox="0 0 70 70" fill="none" xmlns="http://www.w3.org/2000/svg">
<path d="M70 35C70 54.33 54.33 70 35 70C15.67 70 0 54.33 0 35C0 15.67 15.67 0 35 0C54.33 0 70 15.67 70 35Z" fill="#E4E4E4"/>
<path d="M37.328 48.28L28.496 23.08H28.304L28.016 21.496L30.8 12.328H32.144L44.672 48.28H37.328ZM13.28 49V47.656H24.896V49H13.28ZM22.208 38.44V37.144H38.288V38.44H22.208ZM31.808 49V47.656H48.368V49H31.808ZM17.456 48.28L30.8 12.328H32.144L29.408 20.248L19.04 48.28H17.456Z" fill="#00339B"/>
<path d="M54.8281 49.624C53.7721 49.624 52.8601 49.24 52.0921 48.472C51.3561 47.704 50.9881 46.792 50.9881 45.736C50.9881 44.68 51.3561 43.784 52.0921 43.048C52.8601 42.28 53.7721 41.896 54.8281 41.896C55.8841 41.896 56.7801 42.28 57.5161 43.048C58.2841 43.816 58.6681 44.728 58.6681 45.784C58.6681 46.808 58.2841 47.704 57.5161 48.472C56.7801 49.24 55.8841 49.624 54.8281 49.624Z" fill="#00339B"/>
</svg>
