<svg width="287" height="352" viewBox="0 0 287 352" fill="none" xmlns="http://www.w3.org/2000/svg">
<mask id="mask0_50_55" style="mask-type:alpha" maskUnits="userSpaceOnUse" x="0" y="0" width="287" height="352">
<rect width="287" height="351.153" fill="black"/>
</mask>
<g mask="url(#mask0_50_55)">
<path d="M25.393 314.321C26.2953 314.965 27.3264 315.61 28.2286 316.254C29.2598 316.899 30.162 317.543 31.1931 318.059C32.0954 318.574 32.8687 319.09 33.771 319.605C33.8999 319.734 34.0288 319.734 34.1576 319.863C37.1222 321.668 40.2156 323.343 43.309 324.89C44.2112 325.406 45.2423 325.921 46.1446 326.308C46.1446 326.308 46.2735 326.437 46.4024 326.437L49.4958 327.983C51.558 329.015 53.7492 329.917 55.8114 330.819C56.8426 331.335 58.0026 331.721 59.0337 332.108C60.0649 332.495 61.2249 333.01 62.256 333.397C63.2872 333.784 64.4472 334.299 65.4783 334.686H65.6072C66.6383 335.072 67.7984 335.459 68.8295 335.846C71.1495 336.619 73.5985 337.392 75.9185 338.166C76.6919 338.424 77.5941 338.681 78.3675 338.939C80.8164 339.713 83.2653 340.357 85.7143 340.873C86.6165 341.13 87.5188 341.259 88.5499 341.517C90.8699 342.033 93.3189 342.548 95.6389 343.064C96.1545 343.193 96.5412 343.193 97.0568 343.321C97.8301 343.45 98.7323 343.579 99.5057 343.708C100.666 343.837 101.697 344.095 102.857 344.224C103.372 344.353 103.888 344.353 104.404 344.481C105.048 344.61 105.821 344.739 106.595 344.739C108.657 344.997 110.848 345.255 112.91 345.513C113.555 345.642 114.328 345.642 114.973 345.77H115.102C116.004 345.899 116.906 345.899 117.808 346.028C118.711 346.157 119.613 346.157 120.515 346.157C121.031 346.157 121.675 346.286 122.191 346.286C123.222 346.286 124.124 346.415 125.026 346.415C126.315 346.415 127.475 346.544 128.764 346.544H135.209C189.601 345.77 238.451 322.699 273.38 286.094C273.38 286.094 273.38 285.965 273.509 285.965C277.376 282.485 274.025 263.924 258.429 252.195C238.838 237.373 191.921 228.092 191.921 228.092C191.921 228.092 173.747 225.128 106.337 239.177C66.8961 247.426 36.8644 259.413 20.1085 291.894C16.6284 298.596 13.1483 308.907 25.393 314.321Z" fill="white"/>
<path d="M105.95 237.759C81.2032 242.786 54.7804 248.2 34.4155 264.569C27.5843 270.111 23.0731 278.231 19.3352 286.094C17.5307 289.96 15.7263 293.956 14.3085 298.209C13.5351 301.045 12.3751 304.267 13.0195 307.619C13.1484 308.521 13.9218 309.681 14.5662 310.325C17.5307 313.29 20.753 315.094 23.9753 317.414C42.9224 330.561 64.7051 339.841 87.2611 344.739C137.529 355.695 191.921 347.188 236.131 320.765C250.825 311.872 264.358 301.045 275.958 288.285C277.247 286.738 277.247 284.16 277.247 282.485C277.118 278.618 276.087 274.88 274.798 271.4C271.705 263.409 267.709 255.417 260.878 249.875C255.98 246.524 250.696 243.688 245.282 241.368C228.269 234.15 210.353 229.124 191.921 227.061C190.374 226.932 190.117 229.124 191.663 229.381C209.321 232.99 226.851 238.404 243.22 245.751C249.149 248.715 255.465 251.293 260.234 255.933C264.745 260.831 267.967 266.889 270.545 273.076C272.221 276.813 273.381 282.743 272.865 285.707C264.745 295.374 255.207 303.881 244.896 311.228C188.441 350.668 102.728 353.246 42.6646 320.379C37.2512 317.414 31.9666 314.063 26.9398 310.583C24.4909 308.907 21.913 307.49 19.9797 305.556C19.8508 305.427 19.9797 305.556 19.9797 305.685C19.9797 305.814 20.1086 305.943 20.1086 305.943C19.9797 304.396 20.4953 302.334 21.1397 300.272C23.4598 292.796 27.1976 284.934 31.1932 278.102C37.5089 267.92 48.2069 261.475 59.0338 256.32C66.5095 252.84 74.3719 250.133 82.3632 247.555C90.3545 244.977 98.4747 242.786 106.595 240.853C108.657 240.337 108.013 237.373 105.95 237.759Z" fill="black"/>
<g filter="url(#filter0_i_50_55)">
<path d="M7.73514 332.624C10.1841 313.548 21.011 281.454 27.5845 272.818C34.8024 263.409 37.7669 260.444 61.8696 252.324C63.1585 245.879 67.9275 229.639 73.5988 222.808C82.2345 209.79 105.822 206.825 112.911 208.372C112.911 208.372 151.063 194.967 195.015 194.967C208.935 198.061 225.046 204.376 233.811 217.652C239.74 226.417 233.038 229.252 236.002 237.244C236.776 239.306 254.82 249.617 262.167 255.804C265.518 258.511 269.256 265.342 271.834 274.236C276.99 292.409 271.447 317.543 277.892 339.455C290.266 381.731 315.399 394.363 315.399 394.363H-17.6565C-17.3987 394.234 2.45059 372.838 7.73514 332.624Z" fill="url(#paint0_linear_50_55)"/>
</g>
<path d="M9.66853 332.881C12.2464 315.996 17.402 299.241 23.9755 283.516C27.1978 275.911 32.0957 268.564 38.9269 264.053C42.407 261.862 46.2737 260.186 50.2694 258.511C54.265 256.964 58.3896 255.546 62.3852 254.129C63.0297 253.871 63.5452 253.355 63.6741 252.711C64.1897 250.133 64.8341 247.684 65.6075 245.106C68.9587 234.666 72.5676 223.066 82.3634 217.008C89.8391 212.497 98.7326 210.305 107.368 209.919C109.044 209.919 110.848 209.919 112.395 210.176H112.911C113.04 210.176 113.297 210.176 113.426 210.048C119.613 207.083 126.444 205.279 133.147 203.474C153.254 198.834 174.263 196.901 194.886 196.772C207.517 199.736 225.175 206.696 232.909 219.586C234.198 221.648 234.842 223.71 234.584 226.03C234.327 228.608 233.424 231.444 234.069 234.15C234.327 235.31 234.584 236.599 235.1 237.63C236.131 239.048 237.807 239.95 239.096 240.853C245.798 245.235 252.629 249.102 259.074 253.613C261.265 255.16 263.327 256.577 264.874 258.769C269.385 265.213 272.092 272.947 273.252 280.68C275.314 296.405 273.252 312.388 275.314 328.112C277.634 343.837 283.692 359.046 292.199 372.451C298.128 381.473 305.346 389.851 314.497 395.651L315.399 392.043H-17.6565L-16.2387 395.265C-12.3719 390.883 -9.27852 386.114 -6.4429 381.087C2.32173 366.393 7.47737 349.766 9.66853 332.881ZM5.80178 332.366C4.38397 343.321 1.67724 354.148 -2.44729 364.46C-6.57183 374.642 -11.7275 384.567 -18.9454 392.945C-19.9765 394.105 -19.0743 396.296 -17.5276 396.167H315.528C316.559 396.167 317.462 395.265 317.462 394.234C317.462 393.46 317.075 392.816 316.431 392.558C314.368 391.398 312.306 389.722 310.373 388.047C293.488 372.838 282.919 350.282 279.439 327.855C276.474 306.845 282.016 284.16 272.607 264.182C270.416 259.542 267.71 254.644 263.327 251.68C255.336 245.751 246.571 241.368 238.709 235.568C238.58 235.568 238.58 235.439 238.58 235.439C238.709 235.568 238.838 235.826 238.838 235.955C238.064 234.15 237.807 232.604 238.064 230.541C238.451 227.964 239.096 224.483 238.193 221.777C237.807 220.23 237.033 218.812 236.26 217.652C226.98 203.732 210.611 197.545 195.015 194.065C190.632 194.194 186.121 193.421 181.739 193.421C175.681 193.421 169.494 194.323 163.436 195.096C146.036 197.803 129.28 202.443 112.137 206.181L113.297 206.052C109.302 205.279 105.564 205.665 101.697 206.181C76.95 209.919 68.572 220.746 61.8696 243.817C61.0963 246.395 60.4518 248.973 59.8074 251.68L61.0963 250.133C48.7227 254.515 34.8024 258.511 26.94 269.982C24.1044 273.462 22.0421 277.587 20.2376 281.711C13.6642 298.209 8.5085 314.836 5.80178 332.366Z" fill="black"/>
<path d="M210.868 247.813C201.33 268.178 186.508 285.449 168.85 299.112C168.205 299.627 168.85 300.658 169.623 300.272C185.348 292.796 198.624 280.036 206.486 264.569C209.064 259.413 211.255 253.871 212.028 248.071C212.286 247.426 211.255 247.168 210.868 247.813ZM59.9362 252.066C59.5495 273.591 68.3141 295.632 85.07 309.552C85.4567 309.939 85.9723 309.81 86.3589 309.423C86.7456 309.036 86.6167 308.521 86.2301 308.134C82.4922 304.525 78.7543 300.787 75.9187 296.405C69.9897 287.898 66.3807 277.845 64.7051 267.662C63.9318 262.635 63.4162 257.222 63.8029 252.195C63.9318 249.746 60.0651 249.488 59.9362 252.066ZM135.853 303.236C138.818 313.676 141.267 325.019 139.849 335.846C139.462 338.295 143.2 338.939 143.716 336.361C144.36 330.432 143.587 324.632 142.556 318.961C141.396 313.29 139.978 307.876 138.044 302.463C137.529 301.174 135.338 301.818 135.853 303.236ZM94.8658 301.303C90.6124 310.454 87.6478 319.992 85.3278 329.659C85.07 330.69 85.7145 331.721 86.7456 331.979C87.7767 332.237 88.8079 331.592 89.0657 330.561C90.3546 323.343 92.0302 316.125 94.3502 309.036C95.1236 306.716 95.8969 304.396 96.7992 302.076C97.3147 300.916 95.5102 300.014 94.8658 301.303Z" fill="black"/>
<path d="M233.295 236.728C228.526 262.764 210.224 284.805 188.183 298.854C180.708 303.623 172.716 307.747 164.467 311.099C163.952 311.356 163.694 311.872 163.952 312.388C164.081 312.903 164.725 313.161 165.112 312.903C173.619 309.81 181.868 305.943 189.601 301.303C205.326 292.023 219.117 279.134 228.397 263.409C233.166 255.289 236.904 246.782 238.709 237.502C238.967 235.955 237.935 234.537 236.389 234.279C234.971 233.893 233.424 235.053 233.295 236.728ZM143.587 338.681C147.196 338.295 149.774 334.944 149 331.335L147.582 324.503C147.067 321.797 144.489 319.863 141.782 320.25C139.076 320.508 136.884 322.828 136.884 325.663V332.624C136.756 336.232 139.849 339.068 143.587 338.681ZM84.1678 333.912C87.6479 335.201 91.3857 333.139 92.288 329.53L93.9636 322.699C94.608 319.992 93.1902 317.285 90.4835 316.254C87.9056 315.352 84.9411 316.512 83.7811 318.961L80.6877 325.277C79.141 328.757 80.6877 332.752 84.1678 333.912Z" fill="black"/>
<path d="M252.113 394.234C252.113 394.234 253.273 365.491 257.14 357.757M24.6197 330.046C24.6197 330.046 17.4018 370.518 20.2374 394.234M45.3712 368.971C45.3712 368.971 64.4472 371.807 81.2031 371.033" stroke="black" stroke-width="5.126" stroke-miterlimit="10" stroke-linecap="round" stroke-linejoin="round"/>
<path d="M192.952 232.088C194.757 226.932 195.53 221.648 195.143 216.234C195.143 215.719 194.757 215.461 194.241 215.461C193.855 215.461 193.468 215.848 193.468 216.234C193.081 221.132 191.663 226.159 189.343 230.412C188.183 232.99 192.05 234.666 192.952 232.088ZM105.822 238.919C109.431 230.799 118.324 226.675 126.186 223.839C131.084 222.292 136.498 221.132 141.653 220.359C154.156 218.426 171.814 215.461 184.317 214.172C184.445 214.172 184.445 213.914 184.317 213.914C180.708 213.528 177.099 213.528 173.49 213.528C162.663 213.785 151.836 214.945 141.138 216.621C130.44 218.297 118.969 221.519 110.848 229.252C108.271 231.959 105.95 235.053 105.306 238.79C105.177 239.177 105.693 239.306 105.822 238.919Z" fill="black"/>
<path d="M93.8345 272.044C96.5412 285.32 114.071 293.312 143.587 281.325C174.263 268.951 187.539 239.435 190.89 230.67C172.716 196.643 185.348 173.056 185.348 173.056C143.458 169.447 106.853 218.426 106.853 218.426L101.181 242.657C100.666 244.719 99.6346 246.524 98.0879 247.813C95.3812 252.582 92.1589 263.538 93.8345 272.044Z" fill="#FFD6BC"/>
<path d="M191.533 231.057C189.084 227.319 187.537 222.937 186.506 218.683C184.573 209.79 183.929 200.767 183.8 191.745V188.394C184.186 185.043 185.346 181.563 186.635 178.469C188.311 174.345 182.253 171.767 180.32 175.891C180.062 176.407 180.062 177.309 180.062 177.825C179.675 195.354 178.902 217.91 189.986 232.475C190.76 233.248 192.306 232.088 191.533 231.057ZM105.435 218.168C103.501 219.328 102.857 220.874 102.599 222.421C101.826 225.515 102.084 228.866 101.31 232.088C100.666 235.181 98.7324 238.146 98.2169 241.368C97.5724 244.719 95.6391 251.808 94.8657 255.289C94.6079 256.062 95.1235 256.964 96.0257 257.093C96.5413 257.222 96.928 257.093 97.3146 256.835C98.9902 255.417 99.7636 254 100.795 252.195C102.47 249.102 103.63 246.266 104.661 242.786C105.564 239.693 105.177 236.341 105.95 233.119C106.595 230.026 108.399 227.061 109.044 223.839C109.43 222.292 109.559 220.617 108.399 218.683C107.626 217.91 106.337 217.652 105.435 218.168Z" fill="black"/>
<path d="M96.1533 252.195C120.772 250.906 140.879 243.173 160.47 208.243C143.972 222.808 124.509 228.35 104.016 230.928L101.309 242.786C100.793 244.848 97.7 250.906 96.1533 252.195Z" fill="black"/>
<path d="M97.1844 247.426C92.8021 255.675 90.2242 265.987 92.931 275.138C94.9932 281.582 100.922 286.351 107.367 288.156C122.318 292.152 139.59 285.836 152.866 278.747C169.235 269.596 181.351 254.257 189.084 237.502C189.6 236.213 187.795 235.181 187.022 236.47C184.315 241.884 181.222 247.168 177.742 251.937C174.262 256.835 170.266 261.346 165.755 265.342C152.608 277.2 134.821 284.547 117.034 284.547C98.7311 284.031 91.771 274.365 96.0244 256.577C96.6688 253.742 97.7 250.777 99.1178 248.328C99.8911 247.297 97.9577 246.137 97.1844 247.426Z" fill="black"/>
<path d="M47.3046 92.6274C44.9846 103.454 46.7891 110.672 47.8202 140.575C59.6782 190.069 58.776 217.523 65.3494 224.097C70.5051 229.252 101.31 235.955 124.124 230.155C135.724 227.19 145.52 220.488 153.511 215.719C163.565 209.661 171.169 189.941 178.387 177.954C184.059 168.545 184.703 180.918 192.05 172.798C202.232 161.713 214.477 139.415 208.419 99.9742C198.623 36.044 147.969 28.5683 110.462 35.6573C72.8252 42.7463 53.4914 64.1423 47.3046 92.6274Z" fill="#FFD6BC"/>
<path d="M185.699 183.895C190.228 176.406 196.698 170.209 200.838 162.461C213.389 138.962 215.977 110.427 208.731 84.8613C193.592 30.3734 138.729 22.3681 91.1123 38.3788C64.4571 47.4171 45.695 69.8836 42.9777 98.1605C42.7189 107.199 45.048 115.591 45.1774 124.501C45.8244 148 53.1999 170.596 56.0465 193.192C56.6935 200.293 56.6935 207.782 57.7286 215.013C57.9874 216.562 58.2462 217.982 58.7638 219.661C59.9283 223.147 62.5162 225.6 65.3629 227.537C76.1026 234.122 88.2656 235.284 100.429 235.93C125.79 236.963 148.046 229.603 163.185 208.557C163.702 207.782 162.667 206.878 162.02 207.653C145.07 225.729 124.755 231.54 100.687 230.378C90.4653 229.861 68.5977 227.924 64.0689 217.982C61.8692 209.848 61.8692 201.326 60.5753 192.804C59.152 182.733 55.2701 168.659 52.9411 158.717C50.3532 147.484 48.1535 136.121 48.0241 124.63C47.8947 118.819 47.8947 113.009 47.8947 107.199C47.6359 101.388 48.8005 96.3529 50.2238 90.8008C55.3996 68.7216 71.315 50.3868 92.7944 42.2523C113.886 34.1179 138.341 32.052 159.95 39.1535C181.947 46.1259 196.956 64.9771 202.65 86.9272C205.626 97.7732 207.179 109.136 207.955 120.369C208.602 131.731 207.437 143.352 202.909 153.94C199.674 161.945 194.369 168.917 188.158 174.728L182.076 181.054C179.229 183.637 183.629 186.994 185.699 183.895Z" fill="#584235"/>
<path d="M170.525 143.153C170.525 143.153 174.521 123.819 193.339 126.139C209.579 128.201 215.251 167.127 178.388 177.954" fill="#FFD6BC"/>
<path d="M180.062 161.069C183.026 159.393 185.089 156.558 185.217 153.078C185.089 150.5 184.702 147.535 185.346 144.957C185.733 142.508 188.311 141.864 190.244 141.993C192.306 142.38 193.595 144.957 193.982 147.02C193.982 147.149 194.111 147.535 194.111 147.664C194.24 148.309 195.271 148.309 195.529 147.664C197.204 142.637 193.467 137.095 188.053 137.739C180.448 138.255 179.417 146.246 180.835 152.304C181.608 154.882 180.577 157.202 179.16 159.393L178.902 159.78C178.257 160.553 179.288 161.584 180.062 161.069ZM76.9498 129.49C75.0164 138.642 71.4075 147.149 66.8963 155.14C62.9006 164.936 73.212 174.216 82.3633 173.829C83.3944 173.829 83.5233 172.411 82.621 172.153C76.8209 170.349 71.5364 166.482 70.6341 160.553C70.2474 158.749 70.763 157.202 71.6653 155.655C75.9187 147.664 78.4965 138.513 77.8521 129.49C77.8521 128.846 76.9498 128.846 76.9498 129.49Z" fill="black"/>
<path d="M171.169 143.282C174.134 135.677 180.578 128.459 189.214 128.588C189.988 128.459 191.276 128.717 192.05 128.717C194.241 128.846 196.045 129.619 197.721 131.166C205.97 139.415 204.552 153.98 197.85 163.131C195.53 166.353 192.565 169.189 189.214 171.509C185.863 173.829 182.125 175.634 178.13 177.18C177.227 177.438 177.614 178.856 178.516 178.727C187.152 176.922 195.401 172.669 201.072 165.58C209.837 155.011 211.641 137.353 201.201 127.041C198.881 124.979 195.659 123.432 192.437 123.432C191.405 123.432 189.859 123.175 188.828 123.432C183.414 123.69 178.258 126.397 174.907 130.65C171.943 134.259 170.267 138.642 169.752 143.024C169.752 143.797 170.912 144.055 171.169 143.282Z" fill="black"/>
<g filter="url(#filter1_i_50_55)">
<path d="M105.177 112.734C102.341 112.477 100.923 109.126 102.47 106.548C103.372 105.259 104.532 104.099 106.208 103.454C111.106 101.908 127.088 105.388 134.048 113.379C140.235 120.726 118.066 113.895 105.177 112.734ZM71.1494 114.797C73.3405 114.152 73.985 110.93 72.1805 108.868C71.2783 107.837 69.9894 106.934 68.5716 106.677C64.1892 105.903 54.1357 109.899 51.3001 117.503C48.7223 124.077 60.7092 117.375 71.1494 114.797ZM125.026 142.637C128.119 142.508 130.44 139.931 130.182 136.837L130.053 133.228C129.924 130.135 127.346 127.815 124.253 128.073C121.159 128.201 118.839 130.779 119.097 133.873L119.226 137.482C119.355 140.446 121.933 142.766 125.026 142.637ZM70.7627 144.571C73.5983 144.442 75.7895 141.993 75.6606 139.157L75.5317 135.806C75.4028 132.97 72.9539 130.779 70.1183 130.908C67.2827 131.037 65.0915 133.486 65.2204 136.322L65.3493 139.673C65.4782 142.508 67.9271 144.7 70.7627 144.571Z" fill="black"/>
</g>
<path d="M113.426 135.677C117.679 132.842 122.32 130.908 127.475 131.939C129.151 132.197 130.826 132.713 131.858 133.873C132.244 134.388 133.146 134.259 133.146 133.486C133.018 130.908 130.826 129.233 128.764 128.201C124.769 126.139 119.226 126.526 115.617 129.233C114.328 130.006 109.946 134.775 112.266 135.806C112.782 136.064 113.039 135.935 113.426 135.677ZM76.5644 136.322C76.5644 130.908 69.862 128.975 65.7375 130.908C63.4174 131.939 61.7418 134.002 61.0974 136.451C60.8396 137.224 61.9996 137.868 62.5152 137.224C64.7063 134.646 68.4442 133.357 71.4087 134.904C72.3109 135.419 72.4398 135.806 72.6976 136.322C72.6976 138.899 76.4355 138.771 76.5644 136.322Z" fill="black"/>
<path d="M86.7457 186.718C94.9947 194.581 110.591 188.265 114.715 178.727C115.231 177.567 113.942 176.536 112.911 177.051C110.72 178.211 108.786 179.371 106.724 180.274C100.795 182.98 94.6081 185.172 88.0346 184.527C86.7457 184.269 85.8434 185.816 86.7457 186.718Z" fill="black"/>
<path d="M67.9274 207.863C65.994 197.68 65.3496 187.369 67.0252 177.187C67.6696 173.32 69.9897 166.875 73.5986 169.711C75.0165 170.871 82.3633 173.191 83.7811 173.32C87.9056 173.707 90.999 173.191 93.9635 170.871C97.3147 168.164 97.3147 167.004 98.088 166.746C111.622 162.235 128.635 157.724 134.178 175.898C138.689 190.72 150.031 205.285 158.409 190.849C164.854 179.893 164.467 159.013 165.369 154.631C167.561 143.804 170.654 138.519 172.458 140.066C172.458 143.546 171.298 184.662 171.17 186.854C170.267 198.196 168.85 201.805 163.694 209.152C158.538 216.499 140.493 236.477 117.035 238.152C93.4479 239.828 80.4299 237.895 67.2829 222.814C55.4249 209.152 55.0382 180.796 55.0382 180.796C60.8384 197.938 64.834 203.609 67.9274 207.863ZM121.031 178.862C114.328 171.515 104.533 180.022 93.9635 180.796C83.5233 181.569 79.2699 174.995 78.4965 186.596C78.2387 189.431 77.8521 194.2 77.9809 197.423V197.809C78.3676 201.418 79.5276 205.414 83.1366 207.605C90.7412 212.374 102.986 211.214 110.848 209.667C121.804 207.476 124.124 202.449 124.64 200.129C125.413 190.205 123.737 181.827 121.031 178.862Z" fill="#584235"/>
<g clip-path="url(#clip0_50_55)">
<g filter="url(#filter2_di_50_55)">
<path d="M105.159 112.744C102.324 112.486 100.906 109.135 102.453 106.557C103.355 105.268 104.515 104.108 106.191 103.464C111.088 101.917 127.071 105.397 134.031 113.389C140.218 120.735 118.049 113.904 105.159 112.744ZM71.132 114.806C73.3232 114.162 73.9677 110.94 72.1632 108.877C71.2609 107.846 69.972 106.944 68.5542 106.686C64.1719 105.913 54.1183 109.909 51.2827 117.513C48.7049 124.087 60.6918 117.384 71.132 114.806ZM125.009 142.647C128.102 142.518 130.422 139.94 130.164 136.847L130.036 133.238C129.907 130.145 127.329 127.824 124.235 128.082C121.142 128.211 118.822 130.789 119.08 133.882L119.209 137.491C119.338 140.456 121.915 142.776 125.009 142.647ZM70.7454 144.58C73.581 144.451 75.7722 142.003 75.6433 139.167L75.5144 135.816C75.3855 132.98 72.9366 130.789 70.101 130.918C67.2654 131.047 65.0742 133.496 65.2031 136.331L65.3319 139.683C65.4608 142.518 67.9098 144.709 70.7454 144.58Z" fill="#584235"/>
</g>
</g>
<g filter="url(#filter3_di_50_55)">
<path d="M39.347 57.2235C36.8981 49.6802 37.9292 40.0795 46.3072 28.0101C74.7922 -12.8611 166.563 3.04849 166.563 3.04849C166.563 3.04849 156.896 5.79152 145.94 11.4148C176.874 8.53456 198.915 15.6665 218.635 13.472C218.635 13.472 209.742 24.4442 189.377 33.3591C209.355 41.1767 225.466 58.7322 239.645 97.9576C239.645 97.9576 229.978 91.5115 214.124 85.7511C223.275 121.822 210.773 149.252 201.493 166.396C195.95 177.094 192.857 181.895 188.861 189.438C183.319 199.999 180.226 210.834 180.226 210.834C178.937 186.421 182.03 178.74 182.03 178.74C214.253 165.574 208.453 127.308 192.728 125.114C176.23 122.919 171.074 138.555 170.172 142.395C167.079 138.555 169.914 123.879 169.399 108.93C167.079 148.43 146.585 187.655 146.585 187.655C146.585 187.655 151.74 98.7806 131.891 80.6765C131.505 80.265 130.989 79.8536 130.602 79.5793C134.856 105.364 124.029 116.885 124.029 116.885C123.255 91.5115 117.455 79.4421 110.108 74.6418C103.793 76.6991 97.2193 79.1678 90.0014 81.088C86.0058 82.1852 81.7523 83.1452 77.2411 83.831C76.4678 83.9681 75.6944 83.9681 74.9211 83.9681C66.5431 83.9681 58.5519 78.0706 52.494 79.1678C50.4317 79.5793 48.885 81.2251 48.2405 83.4195C47.725 85.4768 47.2094 87.5341 46.6938 89.7285C44.6316 99.4663 39.8626 177.643 39.0892 170.374C36.6403 150.35 -7.9562 83.5567 39.347 57.2235Z" fill="#584235"/>
</g>
</g>
<defs>
<filter id="filter0_i_50_55" x="-17.6565" y="194.967" width="333.056" height="203.395" filterUnits="userSpaceOnUse" color-interpolation-filters="sRGB">
<feFlood flood-opacity="0" result="BackgroundImageFix"/>
<feBlend mode="normal" in="SourceGraphic" in2="BackgroundImageFix" result="shape"/>
<feColorMatrix in="SourceAlpha" type="matrix" values="0 0 0 0 0 0 0 0 0 0 0 0 0 0 0 0 0 0 127 0" result="hardAlpha"/>
<feOffset dy="10"/>
<feGaussianBlur stdDeviation="2"/>
<feComposite in2="hardAlpha" operator="arithmetic" k2="-1" k3="1"/>
<feColorMatrix type="matrix" values="0 0 0 0 1 0 0 0 0 1 0 0 0 0 1 0 0 0 0.25 0"/>
<feBlend mode="normal" in2="shape" result="effect1_innerShadow_50_55"/>
</filter>
<filter id="filter1_i_50_55" x="50.9458" y="103.095" width="84.1702" height="45.4807" filterUnits="userSpaceOnUse" color-interpolation-filters="sRGB">
<feFlood flood-opacity="0" result="BackgroundImageFix"/>
<feBlend mode="normal" in="SourceGraphic" in2="BackgroundImageFix" result="shape"/>
<feColorMatrix in="SourceAlpha" type="matrix" values="0 0 0 0 0 0 0 0 0 0 0 0 0 0 0 0 0 0 127 0" result="hardAlpha"/>
<feOffset dy="4"/>
<feGaussianBlur stdDeviation="2"/>
<feComposite in2="hardAlpha" operator="arithmetic" k2="-1" k3="1"/>
<feColorMatrix type="matrix" values="0 0 0 0 0 0 0 0 0 0 0 0 0 0 0 0 0 0 0.25 0"/>
<feBlend mode="normal" in2="shape" result="effect1_innerShadow_50_55"/>
</filter>
<filter id="filter2_di_50_55" x="46.9285" y="101.105" width="92.1702" height="49.4807" filterUnits="userSpaceOnUse" color-interpolation-filters="sRGB">
<feFlood flood-opacity="0" result="BackgroundImageFix"/>
<feColorMatrix in="SourceAlpha" type="matrix" values="0 0 0 0 0 0 0 0 0 0 0 0 0 0 0 0 0 0 127 0" result="hardAlpha"/>
<feOffset dy="2"/>
<feGaussianBlur stdDeviation="2"/>
<feComposite in2="hardAlpha" operator="out"/>
<feColorMatrix type="matrix" values="0 0 0 0 0 0 0 0 0 0 0 0 0 0 0 0 0 0 0.25 0"/>
<feBlend mode="normal" in2="BackgroundImageFix" result="effect1_dropShadow_50_55"/>
<feBlend mode="normal" in="SourceGraphic" in2="effect1_dropShadow_50_55" result="shape"/>
<feColorMatrix in="SourceAlpha" type="matrix" values="0 0 0 0 0 0 0 0 0 0 0 0 0 0 0 0 0 0 127 0" result="hardAlpha"/>
<feOffset dy="2"/>
<feGaussianBlur stdDeviation="2"/>
<feComposite in2="hardAlpha" operator="arithmetic" k2="-1" k3="1"/>
<feColorMatrix type="matrix" values="0 0 0 0 1 0 0 0 0 1 0 0 0 0 1 0 0 0 0.25 0"/>
<feBlend mode="normal" in2="shape" result="effect2_innerShadow_50_55"/>
</filter>
<filter id="filter3_di_50_55" x="13.6985" y="0" width="229.946" height="218.834" filterUnits="userSpaceOnUse" color-interpolation-filters="sRGB">
<feFlood flood-opacity="0" result="BackgroundImageFix"/>
<feColorMatrix in="SourceAlpha" type="matrix" values="0 0 0 0 0 0 0 0 0 0 0 0 0 0 0 0 0 0 127 0" result="hardAlpha"/>
<feOffset dy="4"/>
<feGaussianBlur stdDeviation="2"/>
<feComposite in2="hardAlpha" operator="out"/>
<feColorMatrix type="matrix" values="0 0 0 0 0 0 0 0 0 0 0 0 0 0 0 0 0 0 0.25 0"/>
<feBlend mode="normal" in2="BackgroundImageFix" result="effect1_dropShadow_50_55"/>
<feBlend mode="normal" in="SourceGraphic" in2="effect1_dropShadow_50_55" result="shape"/>
<feColorMatrix in="SourceAlpha" type="matrix" values="0 0 0 0 0 0 0 0 0 0 0 0 0 0 0 0 0 0 127 0" result="hardAlpha"/>
<feOffset dy="4"/>
<feGaussianBlur stdDeviation="2"/>
<feComposite in2="hardAlpha" operator="arithmetic" k2="-1" k3="1"/>
<feColorMatrix type="matrix" values="0 0 0 0 1 0 0 0 0 1 0 0 0 0 1 0 0 0 0.25 0"/>
<feBlend mode="normal" in2="shape" result="effect2_innerShadow_50_55"/>
</filter>
<linearGradient id="paint0_linear_50_55" x1="1.03281" y1="310.04" x2="393.888" y2="308.487" gradientUnits="userSpaceOnUse">
<stop stop-color="#D7263D"/>
<stop offset="1" stop-color="#E76C6C"/>
</linearGradient>
<clipPath id="clip0_50_55">
<rect width="116.977" height="36.2317" fill="white" transform="translate(40.8872 86.9561)"/>
</clipPath>
</defs>
</svg>
