<svg width="25" height="25" viewBox="0 0 25 25" fill="none" xmlns="http://www.w3.org/2000/svg">
<g clip-path="url(#clip0_2_17)">
<path d="M12.5 0C11.9247 0 11.4584 0.46637 11.4584 1.04167V3.125C11.4584 3.70029 11.9247 4.16667 12.5 4.16667C13.0754 4.16667 13.5417 3.70029 13.5417 3.125V1.04167C13.5417 0.46637 13.0754 0 12.5 0Z" fill="#E4E4E4"/>
<path fill-rule="evenodd" clip-rule="evenodd" d="M12.5 18.75C15.9518 18.75 18.75 15.9518 18.75 12.5C18.75 9.04822 15.9518 6.25 12.5 6.25C9.04822 6.25 6.25 9.04822 6.25 12.5C6.25 15.9518 9.04822 18.75 12.5 18.75ZM9.59915 15.4008C8.85675 14.6584 8.39757 13.6328 8.39757 12.5C8.39757 10.2343 10.2343 8.39757 12.5 8.39757C13.6328 8.39757 14.6584 8.85675 15.4008 9.59915L9.59915 15.4008Z" fill="#E4E4E4"/>
<path d="M19.8657 3.66118C20.2725 3.25438 20.932 3.25438 21.3388 3.66118C21.7456 4.06797 21.7456 4.72752 21.3388 5.13432L19.8657 6.60746C19.4588 7.01425 18.7994 7.01425 18.3925 6.60746C17.9857 6.20066 17.9857 5.54112 18.3925 5.13432L19.8657 3.66118Z" fill="#E4E4E4"/>
<path d="M0 12.5C0 13.0754 0.46637 13.5417 1.04167 13.5417H3.125C3.70029 13.5417 4.16667 13.0754 4.16667 12.5C4.16667 11.9247 3.70029 11.4584 3.125 11.4584H1.04167C0.46637 11.4584 0 11.9247 0 12.5Z" fill="#E4E4E4"/>
<path d="M3.66117 5.13432C3.25438 4.72752 3.25438 4.06797 3.66117 3.66118C4.06797 3.25438 4.72752 3.25438 5.13432 3.66118L6.60745 5.13432C7.01426 5.54112 7.01426 6.20066 6.60745 6.60745C6.20066 7.01425 5.54111 7.01425 5.13432 6.60745L3.66117 5.13432Z" fill="#E4E4E4"/>
<path d="M12.5 20.8334C11.9247 20.8334 11.4584 21.2997 11.4584 21.875V23.9584C11.4584 24.5337 11.9247 25 12.5 25C13.0754 25 13.5417 24.5337 13.5417 23.9584V21.875C13.5417 21.2997 13.0754 20.8334 12.5 20.8334Z" fill="#E4E4E4"/>
<path d="M5.13432 18.3926C5.54111 17.9857 6.20066 17.9857 6.60745 18.3926C7.01425 18.7993 7.01425 19.4588 6.60745 19.8657L5.13432 21.3388C4.72752 21.7456 4.06797 21.7456 3.66118 21.3388C3.25438 20.932 3.25438 20.2725 3.66118 19.8657L5.13432 18.3926Z" fill="#E4E4E4"/>
<path d="M20.8334 12.5C20.8334 13.0754 21.2997 13.5417 21.875 13.5417H23.9584C24.5337 13.5417 25 13.0754 25 12.5C25 11.9247 24.5337 11.4584 23.9584 11.4584H21.875C21.2997 11.4584 20.8334 11.9247 20.8334 12.5Z" fill="#E4E4E4"/>
<path d="M18.3925 19.8657C17.9857 19.4588 17.9857 18.7993 18.3925 18.3926C18.7994 17.9857 19.4588 17.9857 19.8657 18.3926L21.3388 19.8657C21.7456 20.2725 21.7456 20.932 21.3388 21.3388C20.932 21.7456 20.2725 21.7456 19.8657 21.3388L18.3925 19.8657Z" fill="#E4E4E4"/>
</g>
<defs>
<clipPath id="clip0_2_17">
<rect width="25" height="25" fill="white"/>
</clipPath>
</defs>
</svg>
