<svg width="307" height="307" viewBox="0 0 307 307" fill="none" xmlns="http://www.w3.org/2000/svg">
<path d="M305.826 172.579L305.825 172.589L300.02 171.766L305.826 172.579Z" fill="url(#paint0_linear_46_2)"/>
<path d="M302.611 190.093L285.819 187.715C270.632 246.62 217.148 290.138 153.5 290.138C143.073 290.138 132.812 289.044 122.905 286.935V303.951C132.792 305.95 143.023 307 153.5 307C225.665 307 286.199 257.201 302.611 190.093Z" fill="url(#paint1_linear_46_2)"/>
<path d="M105.123 299.221V281.931C88.6427 276.109 73.5496 267.881 60.95 256.56L51.0664 267.824L51.1707 267.918L51.3279 268.058C66.7746 281.844 85.0272 292.553 105.123 299.221Z" fill="url(#paint2_linear_46_2)"/>
<path d="M305.826 172.579C306.601 166.328 307 159.961 307 153.5C307 68.7243 238.276 0 153.5 0C68.7243 0 0 68.7243 0 153.5C0 198.913 19.7211 239.72 51.0664 267.824L60.9773 256.564C32.7525 231.209 15 194.428 15 153.5C15 77.0086 77.0086 15 153.5 15C164.013 15 174.253 16.1714 184.095 18.3907V34.7627C174.235 32.2133 163.895 30.8569 153.239 30.8569C85.3602 30.8569 30.3339 85.8832 30.3339 153.762C30.3339 161.873 31.1196 169.8 32.6191 177.472L32.6 177.48C33.1927 180.477 33.8945 183.435 34.7008 186.349C35.2408 188.318 35.8285 190.267 36.4626 192.195L36.4742 192.187C38.635 198.708 41.3271 204.986 44.4992 210.972C44.9643 203.27 47.3023 191.979 55.8888 182.396C60.6091 177.128 65.7913 172.335 70.6472 168.258L178.33 92.8583C188.526 85.2605 199.621 75.88 205.72 63.0213C208.131 57.938 209.761 52.3112 210.245 46.0361C210.275 45.656 210.3 45.2736 210.321 44.8887L210.245 44.8491V27.1208C258.441 48.7947 292 97.2283 292 153.5C292 159.25 291.65 164.918 290.969 170.485L300.043 171.77L305.826 172.579Z" fill="url(#paint3_linear_46_2)"/>
<path d="M275.541 166C269.399 228.133 216.986 276.666 153.239 276.666C151.82 276.666 150.407 276.642 149 276.594V307C140.124 306.732 131.437 305.71 123 303.996V272.919L122.791 272.866C122.831 271.822 122.901 270.783 123 269.749C123.01 269.641 123.021 269.534 123.032 269.426C123.611 263.754 125.066 258.248 127.147 253C133.573 236.801 145.969 223.058 156.996 214.469L236.523 158.783C242.585 153.823 248.608 148.407 253.513 143.014C263.162 132.406 266.945 120.321 268.419 112.006C270.882 118.591 272.793 125.43 274.098 132.473L274.283 132.343C275.506 139.299 276.143 146.456 276.143 153.762C276.143 153.887 276.143 154.012 276.143 154.137L276.142 154.29C276.143 154.463 276.143 154.636 276.143 154.809C276.143 158.109 276.012 161.38 275.753 164.617L275.541 166Z" fill="url(#paint4_linear_46_2)"/>
<path d="M114.929 231.035C103.207 246.77 101.299 260.22 100.995 264.657C90.8456 259.854 81.4596 253.703 73.0682 246.434C66.4104 240.667 60.3785 234.196 55.0884 227.137L54.9634 226.97C55.3056 220.685 56.8054 212.381 61.5832 205.146C62.6788 203.487 63.8868 201.866 65.1646 200.296C65.8542 199.449 66.5641 198.618 67.2877 197.803C68.5752 196.355 69.9058 194.962 71.2419 193.637C73.3289 191.569 75.4291 189.667 77.3987 187.984L198.952 97.9345C206.249 91.7048 213.98 84.2274 219.267 76.7501C226.842 66.0381 226.984 58.5052 225.799 54.099C226.039 54.274 226.278 54.4498 226.517 54.6265C226.691 54.7546 226.863 54.8832 227.036 55.0122C231.905 58.6536 236.495 62.6477 240.768 66.9565C242.032 68.231 243.269 69.5331 244.476 70.8617C250.291 77.2591 255.44 84.2722 259.814 91.7918C257.496 97.8286 252.815 107.266 243.456 119.374C226.458 141.365 191.287 166.183 191.287 166.183L196.346 162.613L138.358 205.572C131.678 211.723 122.582 220.762 114.929 231.035Z" fill="url(#paint5_linear_46_2)"/>
<defs>
<linearGradient id="paint0_linear_46_2" x1="33" y1="261.5" x2="291.5" y2="34" gradientUnits="userSpaceOnUse">
<stop stop-color="#1A3740"/>
<stop offset="1" stop-color="#779492"/>
</linearGradient>
<linearGradient id="paint1_linear_46_2" x1="33" y1="261.5" x2="291.5" y2="34" gradientUnits="userSpaceOnUse">
<stop stop-color="#1A3740"/>
<stop offset="1" stop-color="#779492"/>
</linearGradient>
<linearGradient id="paint2_linear_46_2" x1="33" y1="261.5" x2="291.5" y2="34" gradientUnits="userSpaceOnUse">
<stop stop-color="#1A3740"/>
<stop offset="1" stop-color="#779492"/>
</linearGradient>
<linearGradient id="paint3_linear_46_2" x1="139" y1="-5.49999" x2="136" y2="310.5" gradientUnits="userSpaceOnUse">
<stop stop-color="#E76C6C"/>
<stop offset="0.698174" stop-color="#D7263D"/>
</linearGradient>
<linearGradient id="paint4_linear_46_2" x1="139" y1="-5.49999" x2="136" y2="310.5" gradientUnits="userSpaceOnUse">
<stop stop-color="#E76C6C"/>
<stop offset="0.698174" stop-color="#D7263D"/>
</linearGradient>
<linearGradient id="paint5_linear_46_2" x1="260" y1="71.5" x2="56.9745" y2="242.916" gradientUnits="userSpaceOnUse">
<stop stop-color="#779492"/>
<stop offset="1" stop-color="#1A3740"/>
</linearGradient>
</defs>
</svg>
