<svg width="345" height="345" viewBox="0 0 345 345" fill="none" xmlns="http://www.w3.org/2000/svg">
<path d="M292.812 119.772C298.344 120.047 304.645 122.813 308.41 126.927C310.094 128.767 311.238 130.949 312.09 133.281C311.323 134.98 310.381 136.225 308.81 137.252C307.38 135.36 305.917 133.509 304.248 131.822C303.803 131.372 303.298 130.747 302.754 130.436C302.347 130.203 301.812 130.072 301.364 129.94C298.318 128.366 295.865 127.718 292.442 127.308L292.812 119.772Z" fill="#FEFEFE"/>
<path d="M228.785 118.163C228.734 115.163 230.115 112.869 232.172 110.747C238.57 104.149 250.17 101.953 259.009 101.895C269.518 101.827 281.672 103.565 289.537 111.222C291.246 112.886 292.773 115.245 292.783 117.707C292.785 118.272 292.78 118.881 292.674 119.435C291.994 120.208 291.654 121.292 291.092 122.159C289.601 124.461 287.424 126.027 285.086 127.37C282.701 128.741 280.008 129.633 277.373 130.387C266.75 133.423 254.8 133.472 244.152 130.52C239.347 129.187 233.884 126.923 230.803 122.818C230.185 121.995 229.837 121.114 229.332 120.239C228.94 119.56 228.898 118.927 228.785 118.163Z" fill="#FEFEFE"/>
<path d="M235.376 122.58L234.862 122.061C233.631 120.664 232.476 118.774 232.665 116.828C232.906 114.353 234.706 112.204 236.592 110.724C242.926 105.756 251.685 104.289 259.52 104.212C262.105 104.186 264.71 104.224 267.278 104.552C272.818 105.259 278.131 106.505 282.853 109.624C284.403 110.648 285.963 111.876 287.074 113.379C288.153 114.839 288.939 116.761 288.625 118.608L288.579 118.846C288.31 120.316 287.41 121.489 286.403 122.548C285.014 121.062 283.613 119.681 281.93 118.519C276.197 114.558 268.709 113.121 261.866 112.864C253.911 112.565 243.835 113.848 237.809 119.586C236.881 120.47 236.006 121.457 235.376 122.58Z" fill="#BFBCBB"/>
<path d="M235.376 122.58C236.006 121.457 236.881 120.47 237.809 119.586C243.835 113.848 253.911 112.565 261.866 112.864C268.708 113.121 276.197 114.558 281.93 118.519C283.613 119.681 285.014 121.062 286.403 122.548C281.049 127.087 274.598 128.822 267.764 129.674C263.87 130.159 260.169 130.323 256.247 129.995C249.17 129.403 240.756 127.46 235.376 122.58Z" fill="#37251D"/>
<path d="M228.784 118.163C228.898 118.927 228.939 119.56 229.332 120.239C229.837 121.114 230.185 121.995 230.803 122.818C233.884 126.923 239.347 129.187 244.152 130.52C254.8 133.472 266.75 133.423 277.373 130.387C280.008 129.633 282.7 128.741 285.086 127.37C287.424 126.027 289.6 124.461 291.092 122.159C291.654 121.292 291.994 120.208 292.674 119.435L292.812 119.772L292.442 127.308C295.865 127.718 298.318 128.366 301.364 129.94C301.812 130.072 302.347 130.204 302.754 130.436C303.298 130.747 303.803 131.372 304.248 131.822C305.917 133.509 307.38 135.36 308.81 137.252C310.381 136.225 311.323 134.98 312.09 133.281C313.527 138.01 313.089 142.218 310.774 146.581C306.796 154.077 298.517 159.36 290.548 161.787L284.644 163.037C282.963 166.889 281.756 171.945 277.626 173.957C277.099 173.977 276.224 174.423 275.71 174.619C274.589 175.047 273.479 175.433 272.319 175.739C264.897 177.694 257.326 177.212 249.933 175.45C247.262 174.813 244.333 173.98 241.968 172.562C240.769 171.843 239.86 170.737 239.025 169.637C236.262 165.994 234.652 161.365 233.555 156.967C230.047 144.415 228.667 131.181 228.784 118.163ZM292.442 127.308C291.864 136.784 290.46 146.247 287.544 155.306C293.839 153.119 301.823 149.747 304.892 143.357C306.143 140.752 306.227 137.888 305.22 135.187C304.375 132.921 303.098 131.538 301.364 129.94C298.318 128.366 295.865 127.718 292.442 127.308Z" fill="#BFBCBB"/>
<path d="M319.991 226.35C320.538 228.391 320.276 231.719 319.207 233.566C318.765 234.33 318.019 234.956 317.298 235.447C315.197 236.879 312.446 237.796 310.109 238.786L298.633 243.619L261.748 259.201L190.997 290.365L174.353 297.67C170.716 299.283 166.81 301.486 162.929 302.307C156.505 303.667 151.651 300.817 146.518 297.376L86.8784 258.339L68.9118 246.7C65.7636 244.661 62.2978 242.708 59.3505 240.4C58.4742 239.714 57.7178 238.828 57.5008 237.706C57.2151 236.231 57.0642 234.107 57.4907 232.657L58.1821 233.311C60.2463 235.128 62.7466 236.518 65.0669 237.982L73.6471 243.455L107.798 265.182L139.323 285.409L148.377 291.295C149.927 292.311 151.448 293.499 153.09 294.355C155.375 295.547 157.474 295.847 160.033 295.666C162.535 295.488 164.64 294.545 166.91 293.537L173.464 290.573L187.309 284.469L245.405 259.285L291.375 239.866L307.666 233.191L315.263 230.027C317.176 229.134 318.613 227.932 319.991 226.35Z" fill="black"/>
<path d="M217.599 166.545C220.033 166.425 222.152 166.5 224.399 167.531C227.05 168.746 229.595 170.336 232.131 171.78L244.685 178.963L280.532 199.663L306.241 214.407L313.311 218.394C315.324 219.512 317.475 220.566 319.196 222.121C319.973 222.823 320.331 223.788 320.36 224.822C320.374 225.323 320.196 225.895 319.991 226.35C318.613 227.932 317.176 229.134 315.263 230.027L307.666 233.191L291.375 239.866L245.405 259.285L187.309 284.469L173.464 290.573L166.91 293.537C164.64 294.545 162.535 295.488 160.033 295.666C157.474 295.847 155.375 295.547 153.09 294.355C151.448 293.499 149.927 292.311 148.377 291.295L139.323 285.409L107.798 265.182L73.6471 243.455L65.0669 237.982C62.7466 236.518 60.2463 235.128 58.1821 233.311L57.4907 232.657L57.2623 232.083C56.9065 230.996 57.2448 229.996 57.7336 229.018C59.1008 227.7 60.279 226.852 62.0451 226.118L69.8184 223.228L86.4192 216.929L149.438 192.622L191.158 176.235L203.359 171.425C208.039 169.553 212.616 167.485 217.599 166.545Z" fill="#FEFEFE"/>
<path d="M200.774 176.556C202.944 176.76 205.227 177.769 206.906 179.16C205.567 180.084 204.042 180.637 202.544 181.244L196.463 183.693C196.221 183.751 196.206 183.768 195.916 183.759C194.606 183.718 191.941 182.482 191.012 181.548C190.703 181.237 190.778 181.297 190.778 180.911C191.543 180.048 192.762 179.696 193.805 179.265L200.774 176.556Z" fill="black"/>
<path d="M187.338 181.754C189.381 181.689 192.162 183.716 193.777 184.862L184.097 188.848C182.442 188.997 180.018 188.041 178.668 187.082C178.202 186.751 178.014 186.45 177.938 185.892C178.959 184.745 180.67 184.365 182.057 183.835L187.338 181.754Z" fill="black"/>
<path d="M121.398 207.555C124.129 207.639 125.982 208.974 127.973 210.699L118.394 214.484L116.861 214.954C115.866 215.156 112.947 213.195 112.108 212.567C111.965 212.165 112.033 211.907 112.101 211.498C113.235 210.844 114.52 210.4 115.73 209.902L121.398 207.555Z" fill="black"/>
<path d="M148.017 197.115C150.378 196.995 152.891 198.886 154.808 200.123C153.664 200.729 152.359 201.163 151.158 201.651L144.746 204.231L143.778 204.532C142.065 204.146 139.892 203.024 138.571 201.896L138.661 201.39C139.751 200.303 141.288 199.855 142.683 199.292L148.017 197.115Z" fill="black"/>
<path d="M108.317 212.758C110.584 212.625 112.89 214.421 114.54 215.799L104.257 219.929C104.014 219.986 103.768 220.052 103.517 220.061C102.017 220.115 99.2886 218.58 98.2526 217.562L98.2947 216.78C98.3971 216.639 98.4561 216.452 98.6023 216.358C99.1103 216.03 100.242 215.857 100.854 215.635L108.317 212.758Z" fill="black"/>
<path d="M94.5027 218.152C96.8675 218.047 99.3101 219.755 101.211 221.003L90.6114 225.151L89.1134 225.572C87.6233 224.819 85.6119 224.034 84.4364 222.869L84.5186 222.363C84.5253 222.342 84.6864 221.981 84.7278 221.942C85.121 221.575 86.5748 221.192 87.1037 220.991L94.5027 218.152Z" fill="black"/>
<path d="M161.758 192.085C163.536 192.066 166.537 193.771 167.809 194.988C166.481 195.77 165.033 196.281 163.605 196.847L157.381 199.294C157.136 199.336 156.881 199.388 156.631 199.341C156.127 199.244 155.55 198.866 155.092 198.633C153.945 198.051 152.14 197.383 151.445 196.252L151.5 196.121C152.277 194.782 160.115 192.382 161.758 192.085Z" fill="black"/>
<path d="M134.958 202.323L135.524 202.316C137.174 202.392 140.232 204.205 141.335 205.416L131.293 209.483L130.513 209.658C130.384 209.677 130.001 209.769 129.88 209.742C128.747 209.488 126.541 208.304 125.617 207.573C125.195 207.239 125.233 207.123 125.16 206.613C125.737 205.423 133.342 202.908 134.958 202.323Z" fill="black"/>
<path d="M174.196 186.822C176.891 186.762 179.096 188.296 181.214 189.781L171.749 193.749L169.92 194.315L164.835 191.622L164.805 191.283C165.671 189.563 172.312 187.476 174.196 186.822Z" fill="black"/>
<path d="M213.464 171.326C214.893 171.331 216.3 171.43 217.678 171.836C218.768 172.157 220.036 172.649 220.613 173.679C219.971 174.87 213.118 177.285 211.524 177.944C210.009 178.562 208.87 178.541 207.331 177.949C206.482 177.622 204.72 176.8 204.381 175.924C204.271 175.637 204.362 175.587 204.47 175.326C206.891 173.505 210.591 172.316 213.464 171.326Z" fill="black"/>
<path d="M80.2277 223.549C82.4645 223.334 85.18 225.105 86.9478 226.32L74.9988 231.12L73.6498 231.671C72.4635 231.436 70.5007 230.264 69.5556 229.473C69.1311 229.118 68.9819 228.82 68.9458 228.259C69.6688 227.406 71.0687 226.843 72.0902 226.414C74.7478 225.299 77.4835 224.422 80.2277 223.549Z" fill="black"/>
<path d="M194.277 185.983L203.082 191.202L192.933 195.335L192.697 195.381C191.459 195.542 186.837 192.649 185.67 191.848C185.051 191.424 184.434 191.118 184.289 190.356C184.829 189.37 192.645 186.591 194.277 185.983Z" fill="black"/>
<path d="M181.525 191.283L181.73 191.228C181.996 191.183 182.228 191.199 182.479 191.301C183.163 191.576 183.808 192.135 184.448 192.511C186.545 193.74 188.715 194.84 190.698 196.251L179.956 200.626C176.799 199.289 173.811 197.486 170.982 195.565C171.325 195.121 180.243 191.792 181.525 191.283Z" fill="black"/>
<path d="M204.344 192.125C204.484 192.09 204.62 192.012 204.765 192.018C205.179 192.036 206.413 192.91 206.807 193.135L213.912 197.205L203.282 201.716L193.837 196.309L204.344 192.125Z" fill="black"/>
<path d="M217.677 186.803L226.749 192.14L215.52 196.491L206.366 191.26L217.677 186.803Z" fill="black"/>
<path d="M125.652 234.829C127.424 234.753 133.137 238.471 134.861 239.713L124.069 244.095C122.642 244.217 120.958 242.976 119.747 242.289L114.513 239.294L125.652 234.829Z" fill="black"/>
<path d="M192.153 196.911L201.531 202.362C200.174 203.079 198.696 203.569 197.269 204.128L190.763 206.695L181.23 201.312L192.153 196.911Z" fill="black"/>
<path d="M203.261 203.156C205.009 203.987 206.583 204.972 208.237 205.964C209.594 206.779 210.981 207.541 212.237 208.51C211.166 209.195 209.745 209.627 208.565 210.116L201.608 213.002L192.378 207.698C192.957 207.147 194.247 206.826 195.014 206.511L203.261 203.156Z" fill="black"/>
<path d="M213.819 209.388L223.183 214.715L212.596 219.154C210.503 218.273 208.591 217.134 206.646 215.979C205.409 215.245 204.186 214.615 203.014 213.768L213.819 209.388Z" fill="black"/>
<path d="M239.397 199.125C242.531 200.421 245.616 202.57 248.52 204.337C247.432 204.965 246.229 205.428 245.087 205.954C242.654 207.073 240.191 208.143 237.604 208.863L228.398 203.658C228.791 203.219 230.132 202.865 230.7 202.634L239.397 199.125Z" fill="black"/>
<path d="M207.114 180.756C210.228 182.109 213.327 184.293 216.227 186.086L205.464 190.343L205.176 190.385C204.002 190.476 202.683 189.549 201.7 188.989C200.32 188.204 198.735 187.44 197.512 186.426C197.097 186.083 196.74 185.707 196.674 185.167C197.812 184.38 199.328 183.974 200.613 183.457L207.114 180.756Z" fill="black"/>
<path d="M166.851 207.347L175.908 212.718L165.027 217.29L155.637 211.995C157.143 211.138 158.717 210.632 160.325 210.004L166.851 207.347Z" fill="black"/>
<path d="M177.428 213.688C177.772 213.635 177.992 213.634 178.312 213.772C179.385 214.237 180.427 215.022 181.428 215.629L186.952 218.882L176.039 223.366L166.535 218.066L177.428 213.688Z" fill="black"/>
<path d="M188.414 219.752L188.549 219.706C189.507 219.523 196.608 224.214 197.868 225.051C194.571 226.881 190.662 228.183 187.125 229.504L177.7 224.163L188.414 219.752Z" fill="black"/>
<path d="M201.604 214.435L210.61 219.906L199.585 224.36L190.205 218.987L201.604 214.435Z" fill="black"/>
<path d="M215.711 197.919L224.975 203.355C224.79 203.697 215.345 207.556 214.362 207.864C212.959 207.722 211.533 206.581 210.331 205.853L204.85 202.524C205.789 201.898 207.089 201.518 208.138 201.077L215.711 197.919Z" fill="black"/>
<path d="M139.02 229.257L148.481 234.578L136.948 239.03L127.331 233.992L139.02 229.257Z" fill="black"/>
<path d="M226.026 204.423C227.808 204.131 234.138 208.543 235.987 209.662L225.442 213.957L224.974 214.059C221.856 213.046 218.439 210.618 215.768 208.729L226.026 204.423Z" fill="black"/>
<path d="M175.964 224.874C179.05 226.332 182.645 228.134 185.302 230.281L174.33 234.74L164.715 229.529L175.964 224.874Z" fill="black"/>
<path d="M227.988 193.136C229.421 192.895 236.104 197.293 237.733 198.27C234.455 200.175 230.451 201.328 226.899 202.683C225.422 202.315 223.994 201.442 222.696 200.666L217.26 197.274L227.988 193.136Z" fill="black"/>
<path d="M155.005 201.647C157.683 201.426 162.85 205.148 165.267 206.618L155.021 210.954L154.728 211.065C153.294 211.324 146.121 206.622 144.834 205.694L155.005 201.647Z" fill="black"/>
<path d="M164.432 218.831C165.567 218.819 166.728 219.602 167.698 220.138L174.317 224.167L163.656 228.448C163.515 228.482 163.376 228.566 163.232 228.549C162.815 228.5 161.685 227.704 161.261 227.475L153.522 223.252L164.432 218.831Z" fill="black"/>
<path d="M249.845 205.336L259.313 210.922C256.219 212.885 252.2 214.111 248.743 215.257C247.614 214.786 246.512 214.077 245.44 213.476L239.18 209.734L249.845 205.336Z" fill="black"/>
<path d="M179.662 201.962L189.059 207.345C188.128 207.971 186.719 208.35 185.665 208.772L178.143 211.774C175.901 211.851 170.327 208.005 168.339 206.685L179.662 201.962Z" fill="black"/>
<path d="M151.597 224.203C151.958 224.152 152.169 224.138 152.529 224.238C153.475 224.5 154.494 225.221 155.36 225.7L161.744 229.26L150.643 233.723C150.486 233.781 150.35 233.842 150.179 233.859C149.91 233.885 141.242 229.265 140.695 228.745L151.597 224.203Z" fill="black"/>
<path d="M162.747 230.365C164.204 230.137 171.088 234.474 172.679 235.454C171.351 236.325 169.717 236.839 168.231 237.384L161.756 239.723L160.792 239.906L151.911 234.665L162.747 230.365Z" fill="black"/>
<path d="M168.911 196.234C172.191 197.457 175.321 199.423 178.291 201.259L167.232 205.834L166.52 205.862C163.706 204.416 160.196 202.971 157.909 200.767C161.157 198.562 165.228 197.496 168.911 196.234Z" fill="black"/>
<path d="M190.711 208.215L199.959 213.642L188.678 218.308L179.221 212.762L190.711 208.215Z" fill="black"/>
<path d="M127.543 223.185C128.548 223.875 129.808 224.43 130.889 225.005L137.481 228.528L126.03 233.128C124.878 232.702 123.715 231.944 122.632 231.357L116.112 227.798C116.414 227.433 118.009 226.97 118.536 226.76L127.543 223.185Z" fill="black"/>
<path d="M153.792 212.601C155.203 213.032 156.532 213.893 157.803 214.633L163.273 217.793L152.264 222.611L142.402 217.075C143.715 216.373 145.166 215.946 146.549 215.4L153.792 212.601Z" fill="black"/>
<path d="M149.683 235.419C149.849 235.388 150.013 235.303 150.18 235.326C150.685 235.395 151.824 236.213 152.283 236.474L159.467 240.615L147.876 245.205L138.341 239.931C139.223 239.304 140.662 238.94 141.7 238.535L149.683 235.419Z" fill="black"/>
<path d="M140.872 217.799L150.508 223.256C148.973 224.102 147.294 224.676 145.66 225.3L139.13 227.825C137.197 226.952 135.322 225.905 133.455 224.903C132.048 224.148 130.581 223.445 129.277 222.52C130.212 221.82 131.793 221.422 132.895 220.985L140.872 217.799Z" fill="black"/>
<path d="M114.239 228.578C115.483 228.551 116.996 229.624 118.078 230.225L124.364 233.768L113.146 238.41C111.119 237.823 109.177 236.712 107.344 235.684C105.903 234.876 104.427 234.1 103.062 233.168C103.817 232.586 105.275 232.21 106.201 231.838L114.239 228.578Z" fill="black"/>
<path d="M142.387 206.536L142.461 206.535C144.472 206.361 150.718 210.534 152.383 211.784L141.211 216.215C141.056 216.246 140.904 216.316 140.746 216.307C140.312 216.282 139.129 215.446 138.719 215.216L131.215 210.988C134.849 209.494 138.615 207.595 142.387 206.536Z" fill="black"/>
<path d="M135.898 240.726C138.011 240.538 144.2 244.611 146.273 245.785C145.536 246.427 144.04 246.786 143.102 247.162L135.314 250.298L134.429 250.476C132.823 249.766 131.305 248.829 129.786 247.953C128.187 247.032 126.576 246.162 125.094 245.057L135.898 240.726Z" fill="black"/>
<path d="M237.161 210.656L237.333 210.615C238.468 210.502 240.018 211.826 240.963 212.364L247.244 215.971C245.504 217.034 243.609 217.711 241.736 218.483L236.538 220.651C234.402 219.905 232.415 218.73 230.456 217.611C229.058 216.812 227.612 216.06 226.341 215.066C227.63 214.336 228.986 213.926 230.346 213.363L237.161 210.656Z" fill="black"/>
<path d="M129.349 211.603C130.921 211.986 132.445 213.134 133.827 213.942C135.605 214.982 137.476 215.934 139.172 217.101C138.006 217.876 136.485 218.356 135.182 218.863L128.238 221.528C127.294 221.6 126.311 220.928 125.479 220.502C122.95 219.211 120.52 217.754 118.201 216.117C121.751 214.249 125.521 212.791 129.349 211.603Z" fill="black"/>
<path d="M116.102 216.791C117.767 217.471 119.239 218.43 120.784 219.334L126.212 222.466L114.667 227.06L104.431 221.175L116.102 216.791Z" fill="black"/>
<path d="M101.817 222.201C103.98 222.103 106.15 223.706 107.981 224.728C109.729 225.705 111.519 226.633 113.193 227.734L102.463 232.035L102.169 232.132C100.772 232.459 92.7076 227.372 91.1144 226.461L101.817 222.201Z" fill="black"/>
<path d="M222.131 174.866C223.863 174.827 225.358 176.01 226.775 176.868L231.549 179.818C230.228 180.532 228.75 180.95 227.359 181.51L218.617 185.095L218.274 185.144C217.36 185.235 216.521 184.771 215.727 184.371C213.497 183.248 211.43 181.873 209.482 180.317C211.437 179.105 213.554 178.326 215.682 177.48L222.131 174.866Z" fill="black"/>
<path d="M254.076 192.938C255.74 193.246 257.058 194.198 258.486 195.06C260.135 196.056 261.592 196.807 262.857 198.295C259.813 200.168 256.129 201.479 252.8 202.808C252.24 203.032 251.154 203.646 250.58 203.697C250.399 203.713 250.225 203.619 250.047 203.58C246.937 202.109 243.846 200.366 241.112 198.272L254.076 192.938Z" fill="black"/>
<path d="M147.465 246.772C148.592 246.61 150.673 248.144 151.719 248.708L159.13 252.561L147.821 257.274C146.338 257.555 137.772 252.435 135.913 251.423L147.465 246.772Z" fill="black"/>
<path d="M242.772 186.803C244.121 186.7 245.48 187.548 246.61 188.207C248.678 189.414 250.784 190.628 252.635 192.15L239.88 197.427C238.919 197.49 237.747 196.799 236.909 196.37C234.49 195.135 232.222 193.679 229.933 192.224L242.772 186.803Z" fill="black"/>
<path d="M232.698 180.67C234.022 180.459 240.419 184.812 241.923 185.701C237.631 187.882 232.832 189.957 228.224 191.333C226.934 190.915 225.736 190.134 224.566 189.46L219.022 186.199C219.663 185.708 220.669 185.482 221.417 185.155C225.127 183.539 228.84 181.906 232.698 180.67Z" fill="black"/>
<path d="M264.351 199.29C264.728 199.265 265.106 199.259 265.465 199.392C266.529 199.784 267.61 200.562 268.583 201.145C270.44 202.257 272.331 203.296 274.018 204.661C272.28 205.806 270.225 206.486 268.301 207.257L261.698 210L261.193 210.074C259.385 209.438 257.702 208.37 256.06 207.392C254.599 206.521 253.119 205.703 251.76 204.672L264.351 199.29Z" fill="black"/>
<path d="M112.205 240.135C112.397 240.108 112.588 240.041 112.782 240.053C113.361 240.087 114.592 240.925 115.136 241.221L121.7 244.797L105.454 251.507L105.033 251.692C104.177 251.486 103.41 250.867 102.652 250.428C100.487 249.174 98.4537 247.938 96.4666 246.401L112.205 240.135Z" fill="black"/>
<path d="M101.017 233.903C101.232 233.86 101.445 233.755 101.664 233.775C102.125 233.816 109.812 238.425 110.908 239.052C109.977 239.839 107.867 240.355 106.661 240.825L95.5529 245.16C95.091 245.247 94.5793 245.171 94.146 244.986C93.0884 244.535 92.0382 243.722 91.0595 243.113L85.9799 240.003L86.1227 239.907L86.3636 239.753C88.1213 238.608 90.2048 238.085 92.1552 237.343L101.017 233.903Z" fill="black"/>
<path d="M89.0672 227.164C89.329 227.101 89.4856 227.035 89.7434 227.132C90.6571 227.474 91.6756 228.256 92.5435 228.757L99.841 232.998L84.9424 238.934C83.5984 239.054 75.9309 233.656 74.4094 232.562L89.0672 227.164Z" fill="black"/>
<path d="M123.036 245.695C123.97 245.649 125.126 246.476 125.916 246.937L132.705 251.18C131.968 251.942 129.533 252.625 128.476 253.066L115.814 258.294C114.91 258.406 107.398 253.449 105.98 252.545L123.036 245.695Z" fill="black"/>
<path d="M134.303 252.017L145.448 258.043C144.226 258.931 142.04 259.529 140.601 260.122L127.895 265.355L126.932 265.636L117.093 259.251C117.457 258.914 118 258.769 118.456 258.579L121.893 257.16L134.303 252.017Z" fill="black"/>
<path d="M224.477 215.762C226.04 216.335 227.542 217.269 229.001 218.07C230.852 219.085 232.816 220.005 234.378 221.444C233.454 222.112 232.433 222.564 231.404 223.04L215.283 229.75L189.218 240.554L169.911 248.362C167.12 249.473 164.277 250.851 161.417 251.737C160.915 251.892 160.602 251.853 160.122 251.676L149.47 246.102L224.477 215.762Z" fill="black"/>
<path d="M232.494 228.242L234.003 228.523C236.063 229.047 238.189 230.708 240.047 231.775L253.987 239.896L259.541 243.141C260.587 243.748 261.756 244.307 262.716 245.034C263.018 245.263 263.179 245.539 263.363 245.863C263.303 245.966 263.269 246.089 263.183 246.172C262.735 246.603 261.336 247.028 260.746 247.28L253.909 250.225L215.667 266.73L212.491 268.008C208.316 265.63 204.393 262.391 200.488 259.584L191.637 253.234L187.126 250.072C186.842 249.855 186.442 249.537 186.317 249.187C186.18 248.807 186.152 248.417 186.293 248.035C186.496 247.48 186.792 247.269 187.304 247.009C189.311 245.989 191.464 245.253 193.557 244.434L201.751 241.078L232.494 228.242Z" fill="black"/>
<path d="M44.0215 196.968C43.2348 194.304 42.9245 191.261 42.4201 188.519L39.2814 171.769L32.1098 133.757L27.0107 106.892C26.1601 102.823 25.8582 98.9372 28.2841 95.3187C29.3973 93.6584 31.1393 92.1588 32.9904 91.3883C36.1987 90.0527 39.6217 89.0909 42.911 87.9642L61.0906 81.6333L126.137 58.8255L172.403 42.6082L183.17 38.7478C185.472 37.919 187.859 36.9386 190.273 36.4922C192.032 36.1667 193.903 36.7408 195.343 37.7657C196.792 38.7977 197.588 40.2245 198.055 41.9131C198.502 43.5283 198.69 45.2223 198.972 46.8721L200.326 54.572L204.324 77.5745L212.095 123.229L217.785 156.5C218.098 159.967 218.082 163.088 217.599 166.545C212.616 167.485 208.039 169.553 203.359 171.425L191.158 176.235L149.438 192.622L86.4191 216.929L69.8183 223.228L62.045 226.118C60.2789 226.852 59.1008 227.7 57.7336 229.018L57.1248 229.146C55.1151 229.44 53.2081 229.2 51.5515 227.926C50.5014 227.118 49.7854 225.914 49.3276 224.687C48.8043 223.285 48.6109 221.725 48.3555 220.258L47.1447 213.649L44.0215 196.968Z" fill="black"/>
<path d="M54.3182 207.517L34.7267 103.176L191.667 48.4207L192.135 51.0304C189.856 52.7685 188.097 55.0811 186.272 57.2586L181.417 62.8345L163.487 83.5365L88.986 168.485L67.4212 193.081L58.9933 202.657C57.4654 204.333 56.019 206.003 54.3182 207.517Z" fill="#6D6F63"/>
<path d="M192.135 51.0304L206.668 134.356L209.586 151.059L210.215 154.682C210.298 155.163 210.53 155.923 210.411 156.384L55.6505 215.563L54.3184 207.517C56.0191 206.003 57.4655 204.333 58.9934 202.657L67.4213 193.081L88.9861 168.485L163.488 83.5365L181.417 62.8345L186.272 57.2586C188.097 55.0811 189.856 52.7685 192.135 51.0304Z" fill="#54574B"/>
</svg>
